<svg id="Calque_1" data-name="Calque 1" xmlns="http://www.w3.org/2000/svg" xmlns:xlink="http://www.w3.org/1999/xlink" viewBox="0 0 1000 1000"><defs><style>.cls-1{fill:none;}.cls-2{clip-path:url(#clip-path);}.cls-3{fill:#fff;}.cls-4{fill:#171b1d;}.cls-5{fill:#2b3138;}</style><clipPath id="clip-path"><circle class="cls-1" cx="500" cy="500" r="416.44"/></clipPath></defs><title>Plan de travail 1</title><g class="cls-2"><path class="cls-3" d="M-550.3,1581q0-1078.88-.23-2157.75c0-9.19,2.07-11.27,11.26-11.26q1092.36.37,2184.72,0c9.19,0,11.26,2.07,11.26,11.26q-.36,2159,0,4318c0,9.19-2.06,11.27-11.26,11.26q-1092.36-.37-2184.72,0c-9.19,0-11.27-2.06-11.26-11.26Q-550.15,2661.08-550.3,1581ZM224.48,3165.6a6,6,0,0,0,4.48-3.69c1.75.28,2.85-.38,3.17-2.19,3.68-1.71,7-3.87,9.19-7.42,9.75-3.74,13.84-11,15.54-21.23,8.9-53.55,18.42-107,27.63-160.48,24.12-140,50.3-279.6,70.9-420.19,6-40.72,8.75-82.07,20.18-121.85,31.91-111,64.64-221.81,96.15-332.95,16.47-58.09,31.06-116.71,46.49-175.08l3.93-15.52c2.77-4.2,3.72-8.92,4-13.84l2.24-4.27c5.16,1,3.39,6.15,5.38,9.06-.44,5.81-.39,11.58,1.75,17.13-.55,4.94-.61,9.85,1,14.65a24,24,0,0,0,1.58,12.32,21.82,21.82,0,0,0,.74,12.24c.61,11.35.9,22.72,1.88,34,3.93,45.56,7.67,91.14,12.3,136.63,2.86,28.16,2.74,56.58,7.59,84.55a3.75,3.75,0,0,0,.45,4.66,256.44,256.44,0,0,0,2,39.49,13.67,13.67,0,0,0,.4,9.55,184.7,184.7,0,0,0,2,37,7.73,7.73,0,0,0,.46,7.1,149.87,149.87,0,0,0,2,34.59,8.11,8.11,0,0,0,.34,7.12,141.28,141.28,0,0,0,2.13,32.12,14.15,14.15,0,0,0,.44,9.53c-.5,14,2.39,28,0,42.07a3.8,3.8,0,0,0-.44,4.66,43.49,43.49,0,0,0-2.12,17.37,3.75,3.75,0,0,0-.49,4.74,31.55,31.55,0,0,0-1.81,14.91,3.75,3.75,0,0,0-.52,4.67,44.62,44.62,0,0,0-2,17.39,3.68,3.68,0,0,0-.6,4.71,45.46,45.46,0,0,0-1.78,17.38,3.61,3.61,0,0,0-.54,4.65c-1.92,6.51-2.16,13.17-1.87,19.88a3.48,3.48,0,0,0-.57,4.63c-3.84,27.84-1.67,55.68.05,83.51a12.66,12.66,0,0,0,.56,9.48,375.23,375.23,0,0,0,1.82,49.35,13.33,13.33,0,0,0,.51,9.53c-.26,15.64-.06,31.26,1.79,46.82a14.49,14.49,0,0,0,.51,9.62c-.2,16.45-.08,32.89,2,49.25a13,13,0,0,0,.45,9.59,342.62,342.62,0,0,0,2,51.71,20.72,20.72,0,0,0,.43,12.05,410.94,410.94,0,0,0,2,56.6,14.91,14.91,0,0,0,.28,9.64c.27,39.3-.92,78.63,2.26,117.88a31.12,31.12,0,0,0,.34,14.48c-.39,9.88-.63,19.74,1.69,29.46a47.08,47.08,0,0,0,.72,17.14l.25,5c-.75,2.65-.83,5.22.9,7.58C575,3143,579.31,3147.11,587,3149c9.72,2.35,19.42,4.82,29.12,7.25l.64,5.18a23.06,23.06,0,0,0-2,12.26,4.31,4.31,0,0,0-.56,4.82,22.3,22.3,0,0,0-1.84,12.36l-.76,4.91c-1.87,3.9-2.07,8-1.69,12.25l-.71,4.91c-2.76,11.37-1.79,22.75,0,34.12a14.36,14.36,0,0,0,.76,9.71c-.42,7.49-.17,14.92,1.84,22.21a8.33,8.33,0,0,0,.67,7.19c1.62,9.66-4.14,16.46-9.13,23.56l.11.05-.12,0c-6.54,10.6,2.9,19,4.06,28.48,1,8.46,6.51,12,14.66,13.81,22.38,4.92,45,7.75,67.8,9.76,25.19,2.23,48.33,8.54,69.11,24.62,31.94,24.71,68.73,36.5,109.55,36.16,26.55-.22,53-.21,79.51-2.62,27-2.45,51.45-11.86,74.86-24.76,3-.91,4.67-2.54,3.27-5.89a3.45,3.45,0,0,0-1.58-4c-3.49-8.22-5.42-22.07-10.78-23.56-14-3.87-11.16-13.88-12.44-22.28-5.12-33.42-21.77-56.62-55.69-65.23-28-7.11-55.23-17.24-84.34-20.05-16-1.54-31.52-5.63-42.07-19.54-12.32-16.25-24.43-32.66-36.92-48.77-4.51-5.82-2.56-8.33,3.62-9.71,19.37-.21,19.55-.22,18.93-18.72-2.21-65.33-4.37-130.65-6.88-196-4.44-115.51-8.8-231-13.88-346.51a1011.7,1011.7,0,0,1,1.22-105.25c2.22-37.07,8.1-73.76,8.21-111.11.17-62.39-5.79-124.69,1.56-187.26,8.14-69.26,17-138.59,18.41-208.51.15-7.53,2.54-13.77,11.74-14,4.33,3.6,9.08,6.36,14.77,7.15,4.67,2.2,9,1.26,12.1-2.53,12.16-14.68,27.22-26.65,37.71-43,15-23.36,24.65-49.64,40.87-72.23,3.17-4.41,4.32-8.9,4.67-14.56,2-32.13,5-64.2,7.43-96.3,2.78-36.1,9.88-71.86,7.64-108.36-.82-13.34-5.4-26.46-2.54-40l5.07-4.42c11.2-5.35,7.13-14.38,5.52-22.83l-.5-4.54c.1-7.54.38-15.1-1.83-22.46l-.7-4.54c.22-7.54.69-15.1-1.87-22.41l-.64-4.6c.43-7.54.78-15.07-1.83-22.36l-.57-4.57c.65-6.74.65-13.44-1.38-20l-1.21-9.48c.87-5.93.78-11.79-1.37-17.49l-1-9.47a34.8,34.8,0,0,0-1.32-17.31l-1.16-12.13a27.08,27.08,0,0,0-1.25-15l-1.12-11.92a41.18,41.18,0,0,0-1.89-19.51l-.49-7.42a53.5,53.5,0,0,0-2.06-22.37l-.58-9.58c-1.53-45.73-8-91-13.62-136.27-5.6-44.94-14-89.65-15.41-134.95-2.47-78.33-3-156.51,6.56-234.76,10.37-84.88,5.2-170.48,4.95-255.81,0-5.2-.93-9.49-5.56-12.72-14.37-10-28.57-20.28-42.84-30.44A1053.62,1053.62,0,0,1,749.4,426.05c-17.8-17.75-37.87-33.53-53.84-52.76-24.69-29.72-45-63-70.27-92.35-8.37-9.72-11.45-20.87-6.06-33.33,16.38.38,23-9.46,27.81-23.74,16.54-49.51,29.76-100.13,49.66-148.51,4.65-11.3,5.21-23.17,2.84-34.91-3.91-19.34-6.8-38.43,2.87-57,2.64-4.84,3.13-9.76.58-14.8-.6-4.82-1.1-9.66-1.83-14.45-2.51-16.43-9.11-32.37-6.76-49.39,5-36.25-8.94-64.26-36.77-86.51-4.45-3.56-8.45-7.67-12.8-11.35-45.75-38.69-97.6-55-156.92-41.1C442.24-223.42,403.71-203,388.6-154v0l-4.85,2.3c-7.62-4.12-7.52,2.85-9.46,6.67-13,25.79-8.34,52.44-4.1,79.19,2,12.82,3.79,23.54-5.38,37.54-29.62,45.2-14.3,97.48,20.94,132.47,3.92,3.9,9,6.31,14.41,5.62,6.48-.82,8.58,1.17,8.65,7.71q.48,49,1.7,98.05c.15,6.4-2.48,10.62-6.9,14.8-18.4,17.4-39.19,33.12-54.07,53.19s-35.31,30.85-55.16,42.89C204.57,380.9,121.23,445,33.07,501.91c-5.29,3.41-8.3,8.42-10.19,14.62C10.62,556.86,3.22,598.25-3.83,639.69c-6.42,37.68-11.44,75.55-11.39,113.9a73.89,73.89,0,0,0,0,24.2c1.44,37.7,1.26,75.4,0,113.1l-2.16,24.46a16.2,16.2,0,0,0-.9,3.5c-1,32.78-5.08,65.23-9.62,97.69-3,21.61-11.6,41.91-13.54,63.66a7.17,7.17,0,0,0-1.65,6.85l-1.4,4.94a4.32,4.32,0,0,0-1,4.87l-1.33,5a3.53,3.53,0,0,0-1,4.74l-1.36,5.41a6.93,6.93,0,0,0-1.28,6.94l-1.24,5a3.39,3.39,0,0,0-.77,4.66l-1.58,10.09c-2.49,52.95-1.54,105.9,0,158.84-1,69.65,2.29,139.3,0,209a237.29,237.29,0,0,0-.9,43.88l-.84,30.21c-2.2,7.55-3.25,15.09.27,22.57,5.9,5.85,14.42,6.62,21.13,10.88-.79,22-4.67,44.07-.4,66.14-.63,7.54-.39,15,2,22.27l.09,53.88c-3.53,14.57-3.64,29.27-1.61,44.05l1.24,5.06.1,2.42,25,73.45a14.21,14.21,0,0,0,4.58,9.58c19.53,18,34.59,39.6,49,61.72,8.2,12.57,11.28,12.58,21.73,2.18,12.84,16.19,20.49,17.56,31.63,5.69,4.6-2.39,1.79-8.57,5.94-11.72,6.09,2.91,6.05,13.29,13,13.12s12-6.21,16.31-11.84c4.89-6.42,2.87-13,.77-19.78-4.79-15.63-14.38-29.13-18.45-45.23-8.33-33-4.93-65.67-.37-98.49.45-3.23-1.62-8.68,3.24-9.25,3.86-.45,7.45,3,9.5,6.76,5.86,10.82,10.51,22.09,12.81,34.26,2.69,14.27,12.24,23.6,23.14,31.93,2,1.52,3.9,2.55,6.65,1.12,11.4-5.93,17.69-22.43,11.89-34.19-6.31-12.8-8.64-26.23-9.26-40.22-.84-18.76-2.85-37.54-2.5-56.28.45-24.11-8.56-43.39-24.92-60.34-12.7-13.16-25.88-26.12-33-43.6l.62-7.06.66.29.19-.74c5.16-2.21,10.39-4.3,14.19-8.72,4.36-2.93,2.51-7.42,2.54-11.23.15-19.59,0-39.19,0-58.78q-.22-64.84-.5-129.69l1.47-51.74c1.9-7.19,1.63-14.47.8-21.76l2-51.72a50.26,50.26,0,0,0,.55-19.41l1.7-37a297,297,0,0,0,.59-48.73c2.9-5.38,5.51-10.95,8.77-16.1,8.06-12.73,10.37-25.31.51-38.26-2.9-3.81-3-8.17-1.68-12.82,9.36-33,18.57-66,27.92-99,.38-1.34,1.71-2.42,3.26-4.53,1.32,4.1,2.57,7.09,3.25,10.21,21.4,98,44.38,195.76,55.68,295.68,2.1,18.56,7.84,36.78,5.64,55.79-5.38,46.54-10.6,93.1-16.12,139.62-6.44,54.23-14,108.33-14.22,163.13-.07,13.83,4.62,23.54,15.73,30.83,2.54,2.9,1.44,6.6,2.16,9.89a43.27,43.27,0,0,0-1.81,17.33,8.25,8.25,0,0,0-.84,7.25,46.15,46.15,0,0,0-1.71,17.23,3.74,3.74,0,0,0-.57,4.78c-1.88,5.64-2,11.45-1.77,17.31a3.8,3.8,0,0,0-.57,4.72c-.88,3.95-2.17,7.85-2.57,11.85-3.25,32.36-6.14,64.76-9.51,97.11-7.31,70.23-15,140.42-22.24,210.65a1671.86,1671.86,0,0,1-31.37,194.11c-14.51,64.78-31.3,129.13-38.83,195.46-6.89,60.71-17.45,121-25.41,181.6-5.58,42.49-8.84,85.28-14.3,127.79-14.19,110.54-32,220.56-50.43,330.44-2.62,15.59,1,25,13.37,32.53,7.62,4.66,9.25,11.1,8.12,19.78-3.2,24.7-5.39,49.56-10.74,73.92-7.88,35.92-21,70.35-31.07,105.65-10.73,37.48-20,75-16.15,114.48.49,5,1.12,9.51,3.9,13.85,10.61,16.55,22.16,32.36,36.31,46.07,9.77,9.47,20.46,18,34.44,19.87,21.47,2.84,43.07,4.12,64.77,2.74,18.22-1.16,32.53-9.06,43.86-23.41a402.85,402.85,0,0,0,41.58-63.38c11.51-22.08,19.72-44.87,15.73-70.4a3.66,3.66,0,0,0-.24-4.66c-.65-10.8-.93-21.66-4.44-32.07a6.31,6.31,0,0,0-1.13-6.74c-.61-6-1.12-12-3.61-17.64a6.32,6.32,0,0,0-1.62-6.68l-8-47.25a7.55,7.55,0,0,0-1-7.26l-1.66-12.48c1.12-1.77.6-3.3-.68-4.73l-4-31.94a4.35,4.35,0,0,0-.64-4.91c.14-6.67-.2-13.29-2.07-19.74a3.88,3.88,0,0,0-.47-4.75c.7-4.51-.78-9.5,2.92-13.36v0l7.83-5.57a10.6,10.6,0,0,0,7-5.24l3.55-2.72A4.66,4.66,0,0,0,224.48,3165.6ZM1366.19,3213l-3-3.85c2.69-8.55,6.19-16.94,7.82-25.69,1.22-6.54,2.57-10.59,10.29-10,3.61.27,8.21-1.23,8-5.74-.27-5.25-5.44-5.49-9.41-5.71-12.19-.69-23.2,3.85-34.24,8.23-5.24,2.08-10.62,7.89-14.39-3.06-1.68-4.88-8-3-10.18,2.22-1.85,4.49-2.47,9.47-3.91,14.15-2,6.52-5.63,13.25-12.29,14.1-12.5,1.59-24.45,4.82-37.42,9.44,1.78-9.63,6-18.5,4.28-26-3.56-15.82,4.34-27.43,10.46-39.91,5.4-11,11.41-21.69,17.45-32.34,18.71-33,35.3-67.26,56.21-99.05,2.91-4.42,5.83-9.49,1.62-14.66-4-4.92-9-2.38-13.52-.66-34.63,13.17-66.95,31.51-100.51,47-23.36,10.77-46.07,24-70.12,33.68-19,7.67-38,17.83-60,12.94a5.43,5.43,0,0,0-6.09,3.15c-1.45,2.77-1.62,6.84.83,7.82,11.72,4.73,15.94,15.87,22.62,24.91,1.29,1.75,3.1,3,5.23,2.33,2.8-.86,3.17-3.4,3.08-6-.22-6.4-4.91-11.07-6.94-17.68,37.57-8.83,72-25.31,108.38-42.68-5.52,35.51-16,67.64-23.28,100.39a17.88,17.88,0,0,1-3.23-.25c-5.08-1.6-11.15-7.46-15-.13-3.76,7.17,3.56,9.87,8.61,12,6.34,2.64,5.44,6.81,4.26,12-6.1,26.68-12.29,53.35-17.82,80.15-3.13,15.18-5.2,30.59-7.38,45.94-.62,4.38-.73,10,5.08,10.92,6.46,1,8.06-4.42,8.69-9.48.89-7.23.69-14.65,2.14-21.74,6.45-31.61,13.61-63.08,19.87-94.73,2-10.15,4.46-15.32,14.93-7.45,3.17,2.38,7.32,4.49,11.15,4.76,10.35.72,7.71,5.82,6.85,13-1.07,8.9-11.73,9.07-12.49,16.85-1.28,13-2.29,26-3.24,39.07-.29,3.94.92,7.77,5.35,8.4,5.31.76,6.74-3.29,7.63-7.59,1.65-8,3-16.08,5.3-23.91,1.42-4.95.94-11.4,6.06-14.27,11.79-6.6,24.08-12.09,38-12.8,6.5-.34,6.47,2.6,4.64,7.49-3.56,9.56-7,19.19-10,28.92-1.21,3.87-1.72,8.39,2.59,11,4.46,2.75,8,.24,10.43-3.29s4.73-4.16,9.09-3c12.56,3.19,23.08-1.84,32.72-9.63q18.59-15,37.53-29.6c2.05-1.58,3.77-5.86,7.63-2.43,1.61,4.6-2.56,7.29-3.7,11-1.74,5.66-6.42,11.54-.23,16.83,5.48,4.67,11.79,2.35,17.21-.58,17.22-9.31,34.27-18.93,51.31-28.54,4.54-2.56,8.54-6.24,5.17-11.77s-7.79-2-11.67.15c-12.11,6.75-24.2,13.55-36.34,20.26-2.34,1.29-4.83,4-7.59,1.22s.19-5.31,1.46-7.56c7.2-12.78,15.82-24.84,21-38.67,1.71-4.6,5.3-11.86-.5-14.39-6.9-3-7.32,5.7-9.61,9.75-8.28,14.61-14.87,30.25-26.75,42.59-3-15.66-4.76-16.23-18.23-6.08C1374.13,3207.43,1370.13,3210.15,1366.19,3213Zm-53.07,82.12c3.56,9.25,3.53,17.77,7.87,24.81,2.71,4.4,6.62,6,11.51,3.67,2.57-1.21,3.93-3.56,2-5.9-9.7-11.54-8.35-25.9-10.38-39.39-.56-3.71-.68-7.59-5.12-8.79-3.69-1-6.17.92-8,4-13.33,22.14-30.58,41.31-47,61-36.6,43.89-72.73,88.29-117.92,124-4.48,3.54-10.72,7-6.53,13.63,3.82,6.08,10.46,3.69,15.59,1.4a334.85,334.85,0,0,1,78.17-24.14c18.89-3.35,37.68-7.31,56.57-10.68,49-8.71,97.16-22.38,147.43-22.42,7.83,0,16,.75,19.66-8.55s1.4-17-7.78-22.9c32.48,4.26,55.27-9.93,73.13-34.38,5.29-7.24,8.79-15.29,4.34-24-4.13-8-12.48-8.09-20.33-8.56-14.58-.87-28,5.54-42.47,6.37-19.92,1.13-39.14,7.56-60,12.54,1.23-12.22,2.25-23.51,3.56-34.77.49-4.26,1.4-8.83-4.24-9.65-5.29-.76-6.74,3.64-7.41,7.86-1.29,8.05-3.54,16.18-3.28,24.21.43,13.14-5.44,18.36-17.85,21-18.07,3.91-17.81,4.82-13.45-13.61,2-8.31,4.8-16.51,4.2-25.25-.39-5.7-2.87-9.65-9.21-8.58-6.09,1-3.68,5.14-3.51,9.35.6,14.91-5.76,28.59-9,42.83-.9,3.93-4.9,3.82-8,4.46-11.59,2.37-23.22,4.56-34.78,7.07-3.5.76-8.14,1.77-7.35,6.49.74,4.43,5.57,4.74,9.05,4.4,8.92-.86,18-1.69,26.6-3.9,9.79-2.5,10.08,1.39,8.21,9.06-2.32,9.51-4.82,19.12-5.56,28.82-.62,8.09-3.74,10.67-11.48,12.14-40.51,7.65-80.81,16.37-121.37,23.7-5.46,1-10.85,6.93-17.05,2.92C1229.76,3399.39,1270.52,3347.58,1313.12,3295.07Z"/><path class="cls-4" d="M574.93,3104.76c-2.33-9.72-2.08-19.59-1.69-29.46,3-4.9,3.14-9.73-.34-14.48-3.18-39.25-2-78.58-2.26-117.88,2.94-3.3,3-6.52-.28-9.64a410.94,410.94,0,0,1-2-56.6c2.81-4.12,3.08-8.16-.43-12.05a342.62,342.62,0,0,1-2-51.71c2.78-3.33,2.8-6.53-.45-9.59-2.11-16.36-2.23-32.8-2-49.25,2.83-3.37,2.85-6.58-.51-9.62-1.85-15.56-2-31.18-1.79-46.82,2.65-3.33,2.73-6.52-.51-9.53a375.23,375.23,0,0,1-1.82-49.35c2.56-3.32,2.6-6.49-.56-9.48-1.73-27.84-3.89-55.67-.05-83.51,2.3-1.28,2.82-2.79.57-4.63-.29-6.71,0-13.38,1.87-19.88,2.33-1.3,2.81-2.82.54-4.65a45.46,45.46,0,0,1,1.78-17.38c2.28-1.3,2.83-2.83.6-4.71a44.62,44.62,0,0,1,2-17.39c2.32-1.32,2.84-2.84.52-4.67a31.55,31.55,0,0,1,1.81-14.91c2.35-1.36,2.77-2.91.49-4.74a43.49,43.49,0,0,1,2.12-17.37c2.26-1.35,2.75-2.88.44-4.66,2.42-14-.48-28,0-42.07,2.63-3.3,2.64-6.49-.44-9.53a141.28,141.28,0,0,1-2.13-32.12q3.89-3.75-.34-7.12a149.86,149.86,0,0,1-2-34.59c2.58-2.54,2.34-4.9-.46-7.1a184.7,184.7,0,0,1-2-37c2.64-3.3,2.78-6.49-.4-9.55a256.44,256.44,0,0,1-2-39.49c2.29-1.79,1.83-3.31-.45-4.66-4.84-28-4.72-56.39-7.59-84.55-4.62-45.49-8.36-91.07-12.3-136.63-1-11.31-1.27-22.69-1.88-34,2.71-4.26,3.42-8.39-.74-12.24a24,24,0,0,1-1.58-12.32c2.69-5.09,3.37-10-1-14.65-2.14-5.55-2.19-11.31-1.75-17.13,2.6-6.07-1.08-10.29-4.47-17.4l-.91,8.34-2.24,4.27c-8.38-2-5.54-8.79-4.07-12.82,10.29-28.38,15.59-58.07,23.43-87.08,1.67-6.18,5-10.08,10.33-12.63,16.48-7.84,33.46-14.64,49-24.4,4.41-2.76,9.47-4.55,14.37-6.45,5.27-2,8.66-.55,6.23,5.5-7.74,19.21-4.34,39.67-5.34,59.26-2.48,48.77-4.07,97.65-5.32,146.49-1.53,59.87-.39,119.75,4,179.63,3.39,46.2,6.11,92.56,7.26,138.85,1.15,46.62,10.88,91.78,16.91,137.58,1.87,14.21,6.84,28.2,5.38,43.24-20.08-7.69-20.9-7.06-21.69,15.41,0,.41,0,.82,0,1.23-2.9,25.37-6.56,50.69-8.51,76.14-1.78,23.28-7.22,46-6.8,69.74,1,56.61,4.9,113,7.73,169.51,1.63,32.49,3.34,65,4.69,97.48q3.35,81.1,7.79,162.14c1.65,30.45,3.23,60.9,5.07,91.34.45,7.34,3.14,11.59,12.11,13.53,19.06,4.11,38.14,8.36,57.42,10.72,15.69,1.92,31.07,6.43,47.15,5.68,6.52-.3,8.79-2.6,8-8.9-1.81-14.08-2.84-28.28-5.2-42.26-7.5-44.51-10.52-89.49-13.88-134.38-2.49-33.29.14-66.78-2.33-100.25-2.91-39.41-1.49-79.08-2.1-118.61-1.07-69.36-4.19-138.7-3.38-208.1.24-20.44,3.83-40.38,6.55-60.48,4.35-32.15,12.4-63.76,13.29-96.41,1-38.37-6.53-76.35-6.6-114.37-.1-52.52-4.72-104.9-1.76-157.62,2.63-46.68,1.27-93.71-.86-140.68-2.37-52.05-3-104.22-5.1-156.33-1.09-27.66-4-55.32-2.91-83.05.28-7-2.87-11.23-9.14-12.42-19.5-3.69-34.41-15.81-49.88-26.73-29-20.45-54.64-44.93-80.85-68.7-5.06-4.59-8.19-6.52-13.85-.66a832.06,832.06,0,0,1-81.13,73.93c-20.36,16.16-40.09,33.62-68.37,34-10.46.15-13.68,7.09-15.55,16.25q-15.7,77-32.07,153.78c-6.23,29.4-13.12,58.66-19.28,88.07-9.74,46.49-18.4,93.22-28.88,139.53-9.78,43.19-18.6,86.56-24.79,130.34-6.71,47.47-13.34,94.8-26,141.21-17,62.33-31.81,125.21-42.64,189-9.93,58.39-19.67,116.82-29.68,175.2-7.2,42-14.82,83.91-22.05,125.89-8.13,47.16-16,94.35-24,141.53-8.49,50-20.49,99.38-25.84,150-1.15,10.86,2.68,7.85,8.07,5.37,13.37-6.15,25.86-13.85,38-22.09,4.9-3.32,9.71-6.21,15.83-3.3-3.69,3.86-2.22,8.85-2.92,13.36-2.33,1.83-1.93,3.39.47,4.75,1.87,6.46,2.21,13.07,2.07,19.74-2.78,2-1.9,3.57.64,4.91l4,31.94c-2.31,1.94-1.6,3.45.68,4.73l1.66,12.48q-4,4.23,1,7.26l8,47.25c-1.09,2.62-1,5,1.62,6.68,2.49,5.62,3,11.64,3.61,17.64-1.21,2.52-1.22,4.83,1.14,6.74,3.51,10.41,3.78,21.26,4.44,32.07-2.35,1.68-2.07,3.22.24,4.66,4,25.53-4.22,48.31-15.73,70.4a402.85,402.85,0,0,1-41.58,63.38c-11.33,14.35-25.65,22.25-43.86,23.41-21.7,1.38-43.3.1-64.77-2.74-14-1.85-24.66-10.39-34.44-19.87C17.08,3515,5.52,3499.2-5.09,3482.65c-2.78-4.34-3.41-8.88-3.9-13.85-3.9-39.5,5.42-77,16.15-114.48,10.1-35.3,23.19-69.73,31.07-105.65,5.34-24.36,7.53-49.22,10.74-73.92,1.13-8.68-.5-15.11-8.12-19.78-12.36-7.56-16-16.94-13.37-32.53C45.95,3012.57,63.71,2902.55,77.9,2792c5.46-42.51,8.72-85.3,14.3-127.79,8-60.6,18.52-120.89,25.41-181.6,7.53-66.33,24.31-130.68,38.83-195.46a1671.86,1671.86,0,0,0,31.37-194.11c7.26-70.23,14.93-140.43,22.24-210.65,3.37-32.35,6.26-64.75,9.51-97.11.4-4,1.69-7.9,2.57-11.85,2.27-1.32,2.82-2.85.57-4.72-.27-5.86-.11-11.67,1.77-17.31,2.34-1.34,2.88-2.89.57-4.78a46.15,46.15,0,0,1,1.71-17.23c3.12-2.09,3.54-4.49.84-7.25a43.27,43.27,0,0,1,1.81-17.33c3.64-4.25,4.43-7.88-2.16-9.89-11.11-7.29-15.8-17-15.73-30.83.27-54.81,7.78-108.9,14.22-163.13,5.53-46.52,10.74-93.08,16.12-139.62,2.2-19-3.54-37.23-5.64-55.79-11.3-99.91-34.28-197.65-55.68-295.68-.68-3.12-1.93-6.11-3.25-10.21-1.55,2.11-2.88,3.18-3.26,4.53-9.35,33-18.56,66-27.92,99-1.32,4.65-1.22,9,1.68,12.82,9.86,13,7.55,25.53-.51,38.26-3.26,5.15-5.86,10.72-8.77,16.1-3.86,16.2-3.12,32.46-.59,48.73l-1.7,37c-3.88,6.36-3.36,12.86-.55,19.41l-2,51.72c-3.87,7.12-3,14.42-.8,21.76l-1.47,51.74c-2.67,2-2.46,4.94-2.45,7.79q.21,96,.44,191.91c-3.8,4.42-9,6.5-14.19,8.72l-.86.45-.62,7.06c-10.45-.87-19.5,3.14-28.36,8-23,12.53-46.49,14.5-71.79,6.51-16.26-5.14-31.38-13.23-48-17.16-6.72-4.26-15.24-5-21.13-10.88.84-7.53,1.34-15.06-.27-22.56l.84-30.21c4.21-14.54,3.15-29.2.9-43.88,2.28-69.65-1-139.3,0-209,2.19-2.37,1.63-5.32,1.63-8.11q0-71.91-.12-143.81c0-2.31-1-4.62-1.48-6.92l1.58-10.09c2.2-1.23,3-2.69.77-4.66l1.24-5c3-1.84,2.83-4.27,1.28-6.95l1.36-5.41c2.23-1.19,3.16-2.64,1-4.74l1.33-5c2.48-1.19,3.6-2.65,1-4.87l1.4-4.94c3-1.7,3-4.12,1.65-6.85,1.94-21.75,10.52-42,13.54-63.66,4.54-32.46,8.58-64.91,9.62-97.69a16.2,16.2,0,0,1,.9-3.5c7.55-7.55,4.09-16.08,2.16-24.46,1.25-37.7,1.43-75.4,0-113.1a32.75,32.75,0,0,0,0-24.2c0-38.35,5-76.22,11.39-113.9,7.06-41.44,14.45-82.82,26.71-123.16,1.88-6.2,4.9-11.21,10.19-14.62,88.16-56.92,171.51-121,261.32-175.5,19.85-12,40.21-22.73,55.16-42.89s35.66-35.78,54.07-53.19c4.42-4.18,7.05-8.41,6.9-14.8q-1.19-49-1.7-98.05c-.06-6.54-2.16-8.53-8.65-7.71-5.45.69-10.49-1.73-14.41-5.62-35.23-35-50.56-87.27-20.94-132.47,9.17-14,7.41-24.72,5.38-37.54-4.24-26.75-8.94-53.4,4.1-79.19,1.93-3.82,1.84-10.79,9.46-6.67.63,1.67,1.92,2.88,3.45,1.72.94-.72,1-2.64,1.41-4v0c5.58,9.94,15.62,14.85,24.49,20.75,22,14.61,32.78,33.12,24.74,60-7.67,25.68-12.38,52-15.7,78.58-.64,5.13.45,13.06-7.89,14.94-2.11-4.83-4.37-9.6-6.3-14.5-4.35-11-8.54-21.77-19.14-29.07-15.11-10.41-18-9.84-24.63,8.1-6,11.21-10.22,23-9.67,35.85,1.21,28.16,11.2,52.73,30.17,73.9,7.48,8.35,15.32,12.16,25.7,7.39,9-4.14,12.31-.34,14.18,8,3.93,17.43,8.18,34.79,12.53,52.12,1.3,5.17.22,14,6.52,13.85,5.88-.1,10.18-7.39,13-13.46a21.37,21.37,0,0,0,1.41-5.9c1.67-12,3.26-24.1,4.88-36.14,9.64,5.24,2.92,13.53,3.81,20.41-1.78,16-3.83,31.64-18.71,42.27-5.09,3.63.77,6,3.76,7.37,17.31,7.92,34.48,16.19,52.14,23.27,14.89,6,29,14.2,45.13,16.85,14.3,6.47,28.68,12.17,45,10.84,8.39-.68,16.9,0,25.35.1l-.07,6.1c-5.39,12.46-2.31,23.61,6.06,33.33,25.31,29.38,45.58,62.63,70.27,92.35,16,19.23,36,35,53.84,52.76A1053.63,1053.63,0,0,0,869.79,529.63c-4.28,5.34-5.37,11.36-5.31,18.21C864.71,578,867,608,869.17,638c3.81,53.38-4.07,105.66-19.22,156.66-11.46,38.58-16.77,77.85-17.07,117.76-.23,31.35-.1,62.7,1.5,94.12,2.09,41,2.14,82.17,5.5,123.18,1.31,16.06,4.81,20.93,20.6,23.27,6.59,1,6.66,2.75,2.89,7.46-11.06,13.83-21.78,15.13-35.4,3.92-2.2-1.81-4.12-4.15-6.61-5.35-3-1.46-6.28-1.66-8.07,2.5-3.92,9.12,1.2,24.33,9.63,29.73,14.6,9.36,25.16,23.14,37.24,35.22,2.64,2.64,4.09,7.34-3.28,6.15-12-1.93-15,4.8-14.48,15.07,1.39,27.6,3.09,55.19,4.48,82.78,1.49,29.64,4,59.28,4.73,88.88,1,39.5,5.81,78.76,5.74,118.3,0,11.24,2,22.62,4.18,33.71,4.7,23.81,10.34,47.44,15.1,71.24,1.38,6.87,3.81,9.16,10.75,6.81,11.71-4,21.78-10.68,31.71-17.7,5.14-3.63,10.21-7.08,16.78-3.4a206.12,206.12,0,0,1-43.7,28c-15,.81-29.25,7-44.47,6.61-1.47,0-3.81.59-4.33,1.62-7.46,14.89-23.51,25.75-20.88,45.48.53,4,3.06,10.35-4.57,11.89-1-75.09,1.34-150.19-1.93-225.29-.71-16.38-5.78-27.28-19.39-35a135.84,135.84,0,0,0-22.14-10c-9.5-3.33-20.56-2.42-29.22-9,2.31-3.48,5-2.73,7.26-2.66a90.27,90.27,0,0,1,55,20.26c1.81,1.44,3.32,4.2,6.12,2.79s1.79-4.29,1.8-6.6c.06-15.53-.3-31.06.14-46.58.22-7.94-2.53-8.51-9.36-6.57a350.42,350.42,0,0,1-67,12c-14.32,1.19-18.85-4.44-19.47-18.57-.21-4.83-1.43-9.61-2.15-14.41-2.54-16.89,1.76-22.66,18.87-25.76,20.7-3.75,41.94-4.2,61.79-13,10.68-4.75,13.57-11.46,12.27-21.93-.47-3.76-.54-8.18-3.71-9.92-4.18-2.3-6.38,2.5-8.73,4.91-10.32,10.58-23.07,18-34.6,27-3.08,2.41-7.46,7.88-10.9,2.89-2.92-4.25,3.39-6.29,6.52-8.56,13.19-9.54,25.92-19.63,38.32-30.21,8-6.81,11.4-14.53,10.63-24.55-3-39-3.16-78.1-4.25-117.12s-3.95-78.2-3.21-117.37a37.55,37.55,0,0,0-1.21-8.41c-5.5-25.71-10.61-51.51-16.88-77-1.84-7.49-.67-13.81,2.08-20.07,7-15.91,13.89-31.92,22-47.27,20.95-39.68,31.45-82.64,40.79-126,2.44-11.35.37-13.44-11.31-11.11A237.26,237.26,0,0,1,776.6,763c-11.75-.64-23.42-2.94-35.28-2.24-8.23.49-16.39.72-20.71-10.78-7.14,15.92-13.31,29.13-19,42.53-15.93,37.44-32.89,74.51-47.18,112.58-20.3,54.07-39.14,108.71-57.41,163.51-5.86,17.57-15.86,34.22-16.62,53.09-1.27,31.75-.59,63.53-2.34,95.35-3.36,61.13,2.11,122,9.53,182.67,3.25,26.56,6.58,53.14,11,79.52,7.85,46.38,25.74,89.83,41.53,133.78,8.06,22.43,13.93,46.76,38.48,59.67,13.91,7.32,25.83,18.35,39,27.17,16.32,10.93,33.57,20.32,53.69,21.49,15.48.9,31,.46,46.55.62-.09,6.65-9,8.24-7.87,16.69,3.7,27.81,4.61,55.89,5.6,83.94.19,5.44-.33,12.84,6.65,15.89,6.4,2.79,10.76,6.92,10.75,15.68,8.81-14.66,8.42-30.52,15.54-44,3.87-7.32,10.21-8.12,16.29-8.31,6.23-.2,7.88,5.72,9.31,11.13,4.35,16.51,2.37,33.3,2.13,49.93-.55,37.61-16.88,69.16-40.84,96.83-12.7,14.67-12.48,21.85,4.76,31.59l.13,0-.27,4.63c-5.7-.79-10.44-3.55-14.77-7.15l-1.21-4.47c-20.7,10.25-11.8-5-11.31-13.09.17-2.85,0-5.72.13-8.58,2.22-55.09-2.51-110-5.25-164.92-.62-12.54-1.6-25.14-2.13-37.73-.36-8.55-2.85-14.13-13.76-14-11.64.14-23.35-2.31-35-4.12-8.43-1.31-13.13,0-12.63,10.28.89,18.29,1.26,36.6,2.18,54.9,2,40.24,3.49,80.54,4.86,120.81q1.77,51.92,2.84,103.92c.92,42-.37,84-2.19,126-1.65,37.94,2.95,75.77,2.67,113.74-.18,24.72,2,49.59,5,74.16,5,40.35,1.94,80-5.72,119.66-6,31.06-12.83,62.12-11.94,94.09,1.18,42.4-.87,84.79,1.95,127.26,2.81,42.28-.51,84.8,2.65,127.22,2.48,33.31-.37,66.78,2.19,100.27,2.64,34.48-.76,69.31,3,103.89,3,27.43,6.37,54.82,8.58,82.31,1.65,20.51,7.76,40.5,6.43,61.37-.48,7.55,3,12.52,12.13,10.44,4.65-1.05,9.57-.88,16.47-1.43-4.25,3.48-7.93,2.17-9.35,5.33-6.18,1.38-8.13,3.89-3.62,9.71,12.49,16.12,24.6,32.53,36.92,48.77,10.55,13.91,26.1,18,42.07,19.54,29.11,2.81,56.34,12.94,84.34,20.05,33.92,8.61,50.57,31.81,55.69,65.23,1.29,8.4-1.52,18.41,12.44,22.28,5.36,1.49,7.29,15.34,10.78,23.56l1.58,4c1.4,3.35-.29,5-3.27,5.88-6-5.55-6.21-13.72-9-20.68-2.86-7.15-4.27-11.93-12.34-3.77-7.38,7.45-17,12.44-26.83,16.46-17.7,7.25-36.6,6.54-55.1,6.8-25.63.37-51.41,2.26-76.91-1.07-31-4-59.86-15.85-86.58-31.33-16.63-9.63-33.91-14.64-52.2-18-6.37-1.18-13.12-1.28-19.09-3.51-25.27-9.42-55-7.29-75.68-28.82-1.19-1.24-3.86-1.06-5.84-1.54,5-7.1,10.76-13.9,9.13-23.56,2.7-2.67,2.35-5.06-.67-7.19-2-7.29-2.26-14.72-1.84-22.21,2.89-3.48,2.82-6.73-.76-9.71-1.78-11.37-2.75-22.75,0-34.12,2.56-1.3,3.46-2.84.71-4.91-.38-4.21-.18-8.35,1.69-12.25,2.53-1.29,3.55-2.81.76-4.91a22.29,22.29,0,0,1,1.84-12.36c2.34-1.36,2.88-2.93.56-4.82a23.05,23.05,0,0,1,2-12.25c3.12-2.14,2.86-3.86-.64-5.18-9.71-2.42-19.4-4.9-29.12-7.25-7.72-1.86-12-6-10.24-14.52,5-3.15,4.92-5.7-.9-7.58l-.25-5C578.45,3116.06,579.38,3110.29,574.93,3104.76ZM832.11,1890.37c.68,6-3.28,9.7-6.57,13.77-4.72,5.85-7.06,12.15-3.76,21.15,13.18-18.58,36.42-27.56,40.42-54.56-5.72,4.86-9.35,8.67-13.66,11.4-5.13,3.24-8.22,11-16.39,8.14q7.77-7.5,15.54-15c13.81-13.26,13.5-15.92-5.66-29.53,1.13,22.24-17.5,34.89-24.58,55.89C825.51,1898,826.31,1891.18,832.11,1890.37Zm-190.42-1414c2.6-11.27,2.25-22.59.46-33.9q-6.42-40.76-13-81.49c-2-16.22-6.26-31.87-11.56-50-4.43,7.77-3.27,13.56-3.41,19-.51,19.06-5.31,35.88-21,48.69-9.13,7.46-17.82,15.47-27.42,22.38-4.69,3.37-7.37,6.68-.54,10.89s9.58,11.94,14.66,17.68l19.21,58.61-4.35,2.88c-3.2,0-3.66,2.57-4.57,4.8-7.67,18.65-12.24,38.61-23.72,55.66-1.33,2-.93,4.54.12,6.93,8,18.38,10.37,38.13,14,57.58-6.19,0-5.29-5.15-6.26-8.77-3.27-12.08-4.1-24.88-11-35.88-1.68-2.66,1.67-10.06-5.83-6.81-5.17,2.23-14.61-.63-14,9.77s1.8,21,2.27,31.58c1.31,29.31.32,58.62,1.83,88,2.08,40.62,3.2,81.32,5.17,122,1.09,22.5,5.51,43.5,16,63,6.12,11.39,12.23,23.22,22,32.42,14-45.45,22-90.31,11.67-136.67-.77-3.44-.93-7.5,3.28-9.65,7.32,11,3,24.34,7.36,35.94,3.92-.78,4.52-4.17,5.15-7.35,5.78-28.75,13.27-57.28,15.81-86.52C640.24,634.19,644.71,561,648,487.66,648.91,482.21,650.92,476.14,641.68,476.41Zm-226-241.5c-2,18.65-4.11,37.3-6.06,56-.62,5.92-2.66,12,2.9,17.13,39.68,36.92,72.15,82.56,125.29,103.24,2.8,1.09,4.34,1.21,6.34-.64,14.42-13.3,31.59-23.11,45.94-36.59,10.39-9.76,16.42-20.87,17.13-35.23.56-11.37,2.23-22.69,3.4-34,3.28-14.85.21-30,1.86-44.87,1-9-2.09-12.48-11.47-12-14.59.77-28.82-.18-43.06-5.67-26.94-10.38-53.5-21.58-80-33-2.18-.94-4.54-3-6.83-1.47s-1.88,4.44-1.09,6.73c10.14,29.15,12.16,60.42,23.44,89.28,1.87,4.79,4.6,9.8,1.22,15.14l-10.42-22.08c-6.14-30.57-14.85-60.49-23-90.55a11.83,11.83,0,0,0-8.33-8.27c-12.53-4-17-13.81-19.79-25.52-4.81-19.92-10.34-39.66-15.57-59.48l-1.92.28Q415.65,174.07,415.65,234.9Zm38,418c.49,11.11,3.61,21.64,7.73,31.82q13.75,34,28.12,67.73c9.55,22.27,19.56,44.34,29.36,66.5,2.09-4.42,2.39-8.34,2.6-12.26,4-72.57-.42-145.14.39-217.7.22-19.81-4.77-36.68-15.28-52.66L483,488.86c5.73-20.53,15.25-39.54,23.54-59a16.37,16.37,0,0,0,2.63-2.41c3.73-5.3,10.19-10.62,10.27-16,.08-6-9.59-5.4-14.45-8.93-19.5-14.17-37-30.58-54.12-47.36-13.12-12.83-26-25.87-39-38.89-4.94-5-7.7-5.25-9.12,2.73-1.7,9.58-4.9,18.9-6.45,28.49-2.77,17.15-9.81,34.26-6.59,51.6,6.06,32.69,13.7,65.11,21.51,97.44,10.86,45,22.3,89.89,34,134.7C447.11,638.59,447.14,647.11,453.66,652.88ZM724.76,415l-.92-3.2-.94.61,1.81,2.63c11,20.29,21.79,40.77,33.32,60.78,3.73,6.48,4.57,11.46.11,17.81-10,14.3-19.22,29.21-29.41,43.4-3.89,5.42-5,9.35-.89,15.18,13.7,19.66,26.42,40,40.54,59.38,6.52,8.93,7.57,15.83,2.39,26.14-11.08,22.05-20.26,45.06-30.89,69.19,34.73,4.23,68.17,2.84,101.44,1.64,19.36-.7,20.57-3.93,20.64-24.3.16-47.23-2.11-94.37-4.42-141.52-.55-11.19-3-18.9-12.86-25-29-17.77-53.07-41.69-78-64.49C752.73,440.54,741.81,424.44,724.76,415ZM136.27,3207.86l1,.57-1-.55c-1.49-26,6.43-50.72,10.58-75.86,11.84-71.63,25.63-142.94,38.33-214.43,8.44-47.52,16.37-95.14,24.46-142.73,5.85-34.4,11.51-68.82,17.43-103.21,7.23-42,13.72-84.11,22.24-125.83,7.23-35.39,16.82-70.29,25.47-105.39,6.8-27.59,15.56-54.84,20.28-82.78,10-59.15,16.34-118.86,29.32-177.6,13.84-62.63,25.84-125.66,39.7-188.31,16.75-75.69,32.39-151.63,48.67-227.43,2.15-10-3.12-11.31-10.78-10.43-23.43,2.71-46.9,4.67-70.5,4.84-5.35,0-7.78,2.39-8.89,7.84q-14.44,70.86-29.42,141.61c-4.68,22.2-10.36,44.21-14.48,66.52-14.82,80.16-36.66,158.91-48,239.78-4.15,29.71-9.36,59.27-13.37,89-4,29.33-5.58,59-10.79,88.12-8.14,45.49-18.25,90.64-27.89,135.86-6.08,28.54-12.06,57.17-17,85.84-5.46,31.53-12.44,62.78-17.07,94.49-6,41.3-13.76,82.34-20.45,123.54-6.5,40-12.48,80.1-18.95,120.12-4.07,25.21-9.79,50.21-12.67,75.54-4.35,38.29-13.23,75.89-16.74,114.24-1,11.41-6.11,25.66,3.08,34C95.22,3190.06,112.9,3204.47,136.27,3207.86ZM306.22,381.33c-25.62,12-47.15,28-69.21,43.17-36.82,25.37-74.51,49.3-107.08,80.56-10.54,10.12-14.09,14.69-7.09,30.31,29.62,66.13,52.38,135,75,203.85,14.23,43.33,30.41,85.73,50.9,126.53,14.43,28.75,32.65,55.19,48.49,83,7.41,13,18.73,25.29,15.63,42.56-2.08,11.63-1.86,23.5-2.95,35.21-4.28,46.12-9.71,92-4.94,138.6,3.39,33.13,7.46,66.09,12.94,98.9,3.91,23.45,11.34,45.22,34.55,56.94,21,10.62,42.26,20.87,63.53,31a100.44,100.44,0,0,0,49.81,9.62c7.68-.43,18.19.42,20.09,8.09,2.53,10.17,3.7,21.94-1.58,32.25-5.8,11.33-14.18,18-28.38,16.32-9.22-1.08-20.8-3.88-26.26,7.37-3.38,7-8.8,10.13-14.66,13.71a619.17,619.17,0,0,1-62.27,33.7c-14.49,6.7-25.88,14.78-27.88,33-.91,8.26-1.63,16.87-3.56,25.22-10.43,45.07-20.49,90.33-24,136.53-2.33,30.92,12.32,49.83,45.6,51.45,23.57,1.15,47.24,1,70.79-2.17,41.57-5.63,74.83-23.14,97.69-60.29,22.71-36.9,43-74.9,60-114.63,9.39-22,19.88-44.32,18.22-69-1.49-22.22-5.66-44.24-8.35-66.39-4.61-37.9-8.81-75.84-10.59-113.92-1.1-23.51-.19-47.16,1.41-70.83,2.52-37.37-.46-75,2.89-112.46,2.39-26.72-1.73-50.87-17.63-74.87-30.53-46.1-59.57-93.22-91-138.74-22.64-32.75-45.42-65.4-67.55-98.5-24.43-36.53-48.06-73.59-72.3-110.24-6.36-9.62-9.49-18.17-3.69-30,10.16-20.79,18.33-42.56,27.19-64,2.27-5.48,5.57-10.66,1.7-17.22-18.23-30.89-37.18-61.23-62.08-87.36C278,476.51,269.85,463.95,281.06,447c2.85-4.32,4-9.76,5.89-14.71Q296.61,406.82,306.22,381.33ZM52,1116.51c6.38-3.69,10.13-2.52,14-.94,12.07,4.92,24.56,9,36.2,14.74s17.91,1.69,25.42-7.86c13.14-16.72,17.71-36.72,22.42-56,8.18-33.53,18.6-66.4,26.8-99.89,6.56-26.78,14.75-53.09,19-80.51,4.16-27,3.28-54.3,6.51-81.33,2.22-18.54-1.93-36.21-8.26-53.8-16.52-46-31.72-92.39-48.22-138.35-8.91-24.8-19.45-49-29.14-73.54-1.25-3.16-2.49-6.88-5.93-7-4.36-.19-3.38,4.75-4.91,7.35-8.36,14.26-10.65,30.65-15.9,46-10.9,31.84-19.47,64.42-27.08,97.23C55.38,715,49.27,747.82,48.33,781.09c-1,36.21-.69,72.45-5.2,108.48-5,40.22-7.87,80.87-15.58,120.58C15.35,1073,10.32,1136.33,6.36,1199.94c-2.1,33.69-3.27,67.47-4.36,101.17-1.16,35.83-3.81,71.63-3.34,107.56.38,29.3.37,58.6-1.51,88-2.42,37.85-.63,76-.64,114,0,3.66-.59,8.35,3.64,9.58,22.35,6.53,44.08,15.77,68.35,4.93,15.23-6.8,30-14,44.62-22,8.24-4.53,11.1-8.92,11.05-17.72q-.4-77.22,0-154.45c.1-17.89-.81-35.74,1.76-53.71,1.23-8.6,4.56-17.59,2.22-26.52-3.19-12.13-2-24.43-1.26-36.53,2.77-42.68,4.65-85.36,4.56-128.13,0-9.09-3.49-10.34-10.06-4.8-12,10.15-24.76,11.29-38.44,3.6-4.06-2.28-11.73-3.15-9.5-8.9,2.86-7.36,8.32-.58,12,1,9.62,4.26,18.85,8.11,28.64.68,7.45-5.65,15.52-10.57,21.63-17.82,12.84-15.23,14.47-29.55,4.24-39.89-4.28,5.47-8.46,11-12.8,16.3-3.42,4.21-7.52,8.89-13.32,6.76C93.32,1135.5,72.51,1128.69,52,1116.51ZM404.73,499.31c-17.86,20.46-25.46,45.19-35.76,68.33-12.4,27.88-22,57.07-35.54,84.34-7.74,15.6-4.36,26.72,4.23,39.24,16.76,24.43,33.19,49.09,49.52,73.81,21.92,33.18,42.62,67.22,65.64,99.61,34.4,48.41,68.1,97.21,98.92,148,7.44,12.26,15.53,24.11,24.89,38.57,2.54-24.14.15-45.21,2.35-66.21.78-7.42.19-16.86-3.48-25-35.05-77.92-69.6-156.08-104.9-233.89-15.64-34.48-25.91-70.6-35.45-107C424.8,579.58,415,539.92,404.73,499.31Zm179.52,582.89c1.15-3.3,2.28-6.61,3.44-9.91,14.08-39.87,28.42-79.66,42.18-119.64,17-49.25,36.36-97.5,57.61-145,25.24-56.46,50-113.13,75.14-169.66,3.72-8.38,4.81-15.69-1.48-23.82-7.94-10.26-14.52-21.57-21.77-32.37-21.24-31.61-46.89-59.4-74.46-85.49-2.3-2.18-4.3-5.48-8.09-4.63s-3,4.31-3.15,7.06c-2.49,46.27-4.84,92.55-7.49,138.81-1.44,25.14-1.26,50.62-5.52,75.3-8.06,46.68-19.61,92.74-28.2,139.34-7.79,42.29-20.79,83.44-25.72,126.38C582.83,1013,588.53,1047.55,584.26,1082.21ZM403.54,280.46a432.4,432.4,0,0,0-53.87,50c-13.89,15.19-28.75,29.67-35.77,50.17-8.56,25-18.07,49.72-28.12,74.17-4.28,10.42.4,16.93,6.19,24,8.73,10.69,17.2,21.59,26,32.23,13.28,16.06,23.69,34,34,52,1.43,2.5,2.56,6.63,6.85,5.92,3.62-.6,3.29-4.39,4.26-6.83,8.42-21.24,18.34-41.84,30.9-60.8,7.13-10.76,8.55-20.84,4.19-32.12-3.27-8.45-4.42-17.31-6-26-3.63-19.5-10.66-38.76-8-58.9,2.74-20.46,6.15-40.84,10.91-61C398.22,309.79,403.1,296.46,403.54,280.46Zm533.5,3106c5.66,1.79,11-2.36,16.58-1.81,12.07,1.19,12.63-5.81,11-14.43a253.16,253.16,0,0,0-14.46-50.35c-4.95-12-12.35-21.41-26.65-24.32-18.27-3.71-36.16-9.24-54.28-13.69-38.35-9.42-76.08-19.65-97.78-57.51-3.12-5.45-8.86-4.65-14.33-3.23-17.8,4.64-31.24,14.94-41,30.46-11.83,18.81-8.38,30.39,12.45,37.12,29,9.38,58.8,15.9,88.61,22.3,25.36,5.45,51.6,6.64,76.21,15.64,3.69,1.35,7.95,1.66,10.19,6,6.93,13.32,15.13,26.17,17.23,41.39C922.18,3383.8,926.06,3389.26,937,3386.45ZM619.19,281.95c-2.57,11.4-2.78,11.56-1,14.88,11,20.4,13.35,43.29,17.93,65.33,5.93,28.53,10.85,57.34,13.18,86.53.79,9.91.88,22.87,6.86,28.82,19.06,18.93,37.69,38.33,56.92,57.11,3.54,3.46,6.22,2.82,8.86-1.14,9.47-14.22,19.17-28.28,28.51-42.58,2.08-3.19,3.84-6.3,1.3-11.13-15.84-30.08-33.79-58.9-51.49-87.87-8.3-13.58-20.32-24.62-28.66-37.84C656,329.35,636.19,308,619.19,281.95ZM211.31,3414.63c4.88-21.07,14.12-37.94,8.93-58.33-5.68-22.31-8.5-45.34-13-68-1.36-6.9.38-17.71-5.16-19.71-6.21-2.23-11.2,7.65-17.1,11.71-17.52,12.06-32.93,28.06-55.65,30.59-4.32.48-4.8,3.1-5.51,6.59-6.87,33.79-10.58,68-14.49,102.23-1,8.39,3.43,9.31,10.45,8.31,30.15-4.28,57.93-13,76.63-39.39,3.77-5.31,5.94-2.84,7.36,1.27C206.32,3397.12,208.28,3404.5,211.31,3414.63ZM33.17,3386.28c-.47,8.42,1.73,15.83,6.1,23.16,12,20.08,32.29,19.22,51.42,21.5,7.48.89,10.42-2.28,11.43-10.26,4.21-33.28,4.8-67.09,13.89-99.71,1-3.67,2.21-8.62-3.52-10.1-16.62-4.29-29-16.08-43.35-24.33-4.53-2.6-8.91-5.58-11.22,2.17-4.85,16.28-10.3,32.43-14.22,48.93C39.87,3353.77,34.15,3369.55,33.17,3386.28ZM345.26,1364.11c-4.48,0-9.15-.8-13.41.16-9.29,2.11-16.64,6.6-16.62,17.84,0,10.54,1.65,19.76,14.55,21.48,10.82,1.44,21.62,4,32.45,4.16,32.1.38,64.1,2.63,96.14,4.17,4.93.24,9.27-1.64,13.48-4.59,8.42-5.91,7.23-14.55,8.09-23,1.24-12.12-2.14-16.92-14.42-17.69-8.53-.54-17.3,2.3-25.37,1.32C408.57,1364.11,376.67,1369.86,345.26,1364.11ZM226.81,3400.91c-4.11.77-4.86,2.87-5.34,4.7-7.55,28.52-23.87,52.31-40.51,76-14.46,20.6-31.58,36.92-57.59,41.74-13.76,2.55-27.44,2.14-41,.57-29.27-3.39-53.12-15.14-63.3-45.42-2.83-8.43-5.76-16.87-7.82-25.5-2.73-11.44-5.15-23-5.2-34.87,0-2.61-1.21-5.13-3.87-5.52s-2.9,2.1-3.16,4.2c-3.64,28.89-7.38,57.74,15.32,81.75,4.17,4.41,7.32,9.79,11.48,14.22,13.38,14.22,26.16,28.61,48.31,30,10.78.67,21.87,1.84,32.66,2.74,25.8,2.16,49.09-3,66.28-26.65a471,471,0,0,0,35-55.45C218.2,3444.24,228.3,3424.5,226.81,3400.91ZM526.15,490.52c-1.19,20.26.93,41.82,14.11,61,2.57,3.73,4.57,8.38,9.93,7.66,5.56-.74,9.47-4.16,11.66-9.6,8.31-20.64,17.54-40.9,24.07-62.27,4.85-15.87-4.13-28.25-8.83-41.72-1.08-3.1-5.16-3.58-8.59-3.53a135.09,135.09,0,0,0-24.23,2c-12.32,2.39-17.21,10-18,21.16C525.7,472.91,526.15,480.69,526.15,490.52Zm257.7,265c16.55,2.25,32.59-1.83,48.84-2.54,18.9-.83,20.89-4,24.57-24.64,2.59-14.52,2.24-15.39-12.54-13.88-32.89,3.36-65.72,3.8-98.58-.07-6.29-.74-13,.91-13.25,7.54-.37,10-8.28,20.47.33,30.24,1.05,1.2,3.86,1.31,5.8,1.19C754.13,752.34,768.87,757.87,783.85,755.48ZM997,3355.89c-1.16-4.8-4.08-12.22-4.57-19.79-1.67-25.86-16.79-42.25-38.81-51.18-28.51-11.56-58.84-17.62-89.13-23.22-15.71-2.9-31.93-3.55-44.76-16a145.12,145.12,0,0,1-20.18-23.92c-5.44-8.2-13.54-5.87-18.18-2.84-4.82,3.14,1.67,7.91,4.12,11.69,14.59,22.52,37.8,31.46,61.87,38.21,26.95,7.55,54.37,13.36,81.42,20.59,12.83,3.43,21.74,11.7,26.54,24.71,7.19,19.48,14.49,38.86,17.16,59.61.31,2.41.22,4.83,3.93,4.69C983.56,3378.17,996.79,3365.67,997,3355.89ZM825.25,1365.06c0-1.63,0-3.26,0-4.88-.07-18.18-2.86-19.61-19.93-12.07a158.69,158.69,0,0,1-53.91,13.51c-25.49,1.69-27.2,3.78-24.26,28.14,0,.4,0,.82,0,1.22,2,17,6.18,19.82,23.35,16.33,15.45-3.13,30.91-6.21,46.43-9C822.06,1393.87,825.33,1390.17,825.25,1365.06ZM433-94.44c-1.14-3.32,1.65-8.42-2.59-12.68-9.42-9.46-18-19.53-29.69-26.8-20.87-12.95-20.47-13.54-26.55,11.21C372-114,369-105,376-97.15c6.26,7,12.74,13.91,20,19.85,9.53,7.84,19.91,4.31,30.11.52C434.44-79.89,432.9-86.79,433-94.44ZM819.62,1983.15c1.35-9,1.14-17.85,8-24.1,14.42-13.22,23.36-30.17,31.67-47.38,5-10.38,8.87-21.38,9.12-33.55-7.62,19.11-24.07,30.52-37.11,44.81C816.93,1938.66,811.22,1967.87,819.62,1983.15ZM870,1829.58c-.25-4.84.08-9.8-.89-14.5-1.63-7.88-7.39-9.4-13.26-4-12.32,11.41-9.73,35,4.57,43.4,4.65,2.74,5.49-.29,6.78-3.45C870,1844.14,870.1,1836.89,870,1829.58Zm-50.65,53.94c5.33-6.08,8.82-31.1,5.54-36.12a5.86,5.86,0,0,0-3.85-2.2,2.87,2.87,0,0,0-3.08,3C817.9,1859.72,816.5,1871.3,819.32,1883.53Zm4-202.31c7-2.55,7.37-9,10.59-13.18,1.65-2.16,2.23-4.86-.25-6.27-2.66-1.51-6.1-2.89-8.93-2.47-2.39.35-1.26,4.05-1.34,6.26C823.18,1670.58,823.31,1675.6,823.31,1681.22Z"/><path class="cls-5" d="M935.89,1628.3c-6.57-3.68-11.64-.23-16.78,3.4-9.93,7-20,13.73-31.71,17.7-6.94,2.35-9.38.06-10.75-6.81-4.76-23.8-10.4-47.43-15.1-71.24-2.19-11.1-4.2-22.47-4.18-33.71.07-39.54-4.76-78.79-5.74-118.3-.73-29.6-3.24-59.24-4.73-88.88-1.39-27.59-3.09-55.18-4.48-82.78-.52-10.27,2.48-17,14.48-15.07,7.37,1.19,5.92-3.51,3.28-6.15-12.08-12.09-22.64-25.86-37.24-35.22-8.43-5.4-13.55-20.61-9.63-29.73,1.79-4.16,5-4,8.07-2.5,2.48,1.2,4.41,3.54,6.61,5.35,13.62,11.21,24.34,9.91,35.4-3.92,3.77-4.71,3.7-6.48-2.89-7.46-15.8-2.34-19.29-7.21-20.6-23.27-3.35-41-3.41-82.16-5.5-123.18-1.6-31.43-1.74-62.78-1.5-94.12.3-39.91,5.6-79.18,17.07-117.76,15.15-51,23-103.28,19.22-156.66-2.14-30-4.45-60-4.69-90.16-.05-6.85,1-12.87,5.31-18.21,14.27,10.16,28.48,20.42,42.84,30.44,4.63,3.23,5.55,7.52,5.56,12.72.25,85.32,5.42,170.93-4.95,255.81-9.56,78.25-9,156.43-6.56,234.76,1.43,45.3,9.81,90,15.41,134.95,5.64,45.32,12.09,90.55,13.62,136.27-3.25.15-5,1.66-4.83,5.1s2.23,4.65,5.41,4.48a53.5,53.5,0,0,1,2.06,22.37c-2-.34-4.68-2.78-5.05,1.61-.33,3.91,1.72,5.76,5.55,5.82a41.18,41.18,0,0,1,1.89,19.51c-4.36.11-5.17,2.9-5.07,6.54.12,4.12,2.26,5.74,6.19,5.38a27.08,27.08,0,0,1,1.25,15c-3.3-1.47-5.35-1.18-5.09,3.22s-.84,9.44,6.25,8.91a34.8,34.8,0,0,1,1.32,17.31l-5.89-7.13c2.4,7.38-3.63,15.08,6.93,16.6,2.15,5.7,2.25,11.56,1.37,17.49-4.55-2.31-.41-8.65-8.75-13.11,3.6,9.66-1.52,18.67,10,22.59,2,6.56,2,13.25,1.38,20-1.84-.35-3.67-4.14-4.49-2.34-1.75,3.86-.28,7.27,5.06,6.91,2.6,7.29,2.25,14.83,1.83,22.36-1.71.33-4.19,0-3.83,2.7.34,2.51,2.74,1.8,4.48,1.91,2.56,7.31,2.09,14.87,1.87,22.41l-4.68-2.75a18.38,18.38,0,0,0-.35,3.33c.27,3.6,2.71,4.23,5.72,4,2.22,7.36,1.94,14.91,1.83,22.46l-4.67-2.81a17.13,17.13,0,0,0-.43,3.28c.21,3.55,2.54,4.35,5.6,4.06,1.61,8.44,5.68,17.48-5.52,22.83-.48-2.23-.52-5.49-4-4.22s-6.46,4-5.9,8c.43,3,3.11.64,4.79.65-2.86,13.56,1.72,26.68,2.54,40,2.24,36.5-4.86,72.27-7.64,108.36-2.48,32.1-5.42,64.17-7.43,96.3-.35,5.66-1.5,10.15-4.67,14.56-16.23,22.58-25.9,48.86-40.87,72.23-10.49,16.37-25.55,28.33-37.71,43-3.14,3.79-7.43,4.73-12.1,2.53q.13-2.32.27-4.63c3.18-.62,6.52-.95,8.68-3.8,10.32-13.6,24.33-23.82,33.92-38.22,15.39-23.11,24.65-49.63,40.93-72.2,2.68-3.71,3.76-7.86,4.11-12.52,1.93-26,4.28-52,6.31-78,4.17-53.51,15.25-106.76,6.28-160.79-.48-2.09.52-6-2.4-5.58-4.22.68-2.3,5-2.45,7.88Z"/><path class="cls-5" d="M619.23,247.62q0-3.05.07-6.1c5.75-2.33,13.17-.57,16.79-8.06,6.57-13.58,9.4-27.09.06-40.4-5.12-7.3-4.19-14.42,1-20.14,7-7.73,8.29-16.55,8.3-26.08,0-8.16-.26-16.33-.32-24.49,0-2.07.41-4.26,2.86-4.77,1.71-.35,3.61.57,3.62,2.34.17,17.32,5.78,35.88-4.72,51.29-6.87,10.08-7.37,17,1,25.26,3.54-3.88,3.91-9,5.41-13.54,9.81-29.86,17.26-60.73,29.83-89.37,11-25.16,12.08-49.35,6.5-75-.59-2.72-1.16-6.81-2.93-7.61-3-1.33-6.05,1-8.22,3.81-8.34,10.86-19.08,11-30.87,6.94-2.49-.86-5.32-3.69-7.76-1.39-2.71,2.56-1.21,6.46,0,9.23,3.45,7.83,7.61,15.35,11.35,23.05,1.11,2.28,1.46,5-1.37,6.2-2.18.89-3.73-1.18-4.77-2.95-7.22-12.36-14.44-24.67-15.24-39.58a23,23,0,0,1,20.69-24c14-1.46,26.25,2.3,37.13,12.64l9.05-21.47c1.9-3.46,3.83-.39,5.74,0-9.67,18.57-6.77,37.66-2.87,57,2.37,11.74,1.81,23.61-2.84,34.91-19.9,48.38-33.12,99-49.66,148.51C642.27,238.16,635.61,248,619.23,247.62ZM645.5.13c-9.09,9.31-9.09,9.31,2.73,13.2C645.22,9.12,646.45,5.11,645.5.13Z"/><path class="cls-5" d="M306.22,381.33q-9.63,25.48-19.27,51c-1.88,5-3,10.4-5.89,14.71-11.2,16.94-3,29.5,8.49,41.59,24.9,26.13,43.86,56.47,62.08,87.36,3.87,6.55.56,11.74-1.7,17.22-8.86,21.42-17,43.18-27.19,64-5.8,11.86-2.67,20.41,3.69,30,24.24,36.66,47.88,73.71,72.3,110.24,22.13,33.09,44.91,65.75,67.55,98.5,31.47,45.53,60.51,92.65,91,138.74,15.9,24,20,48.15,17.63,74.87-3.35,37.47-.37,75.09-2.89,112.46-1.6,23.68-2.51,47.33-1.41,70.83,1.78,38.08,6,76,10.59,113.92,2.69,22.15,6.86,44.16,8.35,66.39,1.66,24.71-8.83,47.06-18.22,69-17,39.73-37.26,77.73-60,114.63-22.87,37.15-56.13,54.66-97.69,60.29-23.55,3.19-47.22,3.31-70.79,2.17-33.28-1.62-47.93-20.52-45.6-51.45,3.48-46.2,13.53-91.45,24-136.53,1.93-8.35,2.65-17,3.56-25.22,2-18.21,13.4-26.3,27.88-33a619.17,619.17,0,0,0,62.27-33.7c5.86-3.57,11.29-6.75,14.66-13.71,5.46-11.25,17-8.45,26.26-7.37,14.2,1.66,22.58-5,28.38-16.32,5.27-10.31,4.11-22.07,1.58-32.25-1.91-7.67-12.41-8.52-20.09-8.09A100.44,100.44,0,0,1,416,1352c-21.27-10.15-42.49-20.4-63.53-31-23.21-11.72-30.64-33.49-34.55-56.94-5.47-32.81-9.55-65.77-12.94-98.9-4.77-46.63.66-92.48,4.94-138.6,1.09-11.71.86-23.58,2.95-35.21,3.1-17.28-8.22-29.53-15.63-42.56-15.84-27.85-34.06-54.29-48.49-83-20.49-40.8-36.66-83.2-50.9-126.53-22.61-68.82-45.37-137.72-75-203.85-7-15.62-3.45-20.2,7.09-30.31C162.49,473.8,200.19,449.87,237,424.5,259.06,409.3,280.6,393.37,306.22,381.33Z"/><path class="cls-5" d="M817.89,1722c-15.52-.16-31.07.28-46.55-.62-20.12-1.17-37.36-10.56-53.69-21.49-13.18-8.82-25.09-19.85-39-27.17-24.56-12.92-30.43-37.24-38.48-59.67-15.79-43.95-33.68-87.39-41.53-133.78-4.46-26.37-7.79-53-11-79.52-7.41-60.66-12.88-121.54-9.53-182.67,1.75-31.81,1.06-63.59,2.34-95.35.76-18.86,10.76-35.52,16.62-53.09,18.27-54.79,37.1-109.44,57.41-163.51,14.29-38.06,31.25-75.13,47.18-112.58,5.7-13.4,11.87-26.61,19-42.53,4.33,11.49,12.48,11.26,20.71,10.78,11.86-.7,23.52,1.6,35.28,2.24a237.26,237.26,0,0,0,59.5-4.29c11.68-2.33,13.76-.24,11.31,11.11-9.33,43.36-19.84,86.32-40.79,126-8.11,15.35-15,31.36-22,47.27-2.75,6.26-3.92,12.59-2.08,20.07,6.27,25.52,11.38,51.32,16.88,77a37.55,37.55,0,0,1,1.21,8.41c-.74,39.17,2.12,78.27,3.21,117.37s1.28,78.14,4.25,117.12c.76,10-2.66,17.74-10.63,24.55-12.4,10.59-25.13,20.67-38.32,30.21-3.13,2.26-9.44,4.3-6.52,8.56,3.43,5,7.82-.48,10.9-2.89,11.52-9,24.27-16.43,34.6-27,2.35-2.41,4.54-7.21,8.73-4.91,3.17,1.74,3.24,6.16,3.71,9.92,1.3,10.47-1.59,17.18-12.27,21.93-19.85,8.82-41.09,9.27-61.79,13-17.11,3.1-21.41,8.87-18.87,25.76.72,4.81,1.94,9.59,2.15,14.41.62,14.13,5.15,19.76,19.47,18.57a350.42,350.42,0,0,0,67-12c6.83-1.94,9.59-1.38,9.36,6.57-.44,15.51-.08,31.05-.14,46.58,0,2.31.87,5.26-1.8,6.6s-4.31-1.35-6.12-2.79a90.27,90.27,0,0,0-55-20.26c-2.28-.07-4.95-.81-7.26,2.66,8.66,6.57,19.72,5.66,29.22,9a135.84,135.84,0,0,1,22.14,10c13.62,7.71,18.68,18.6,19.39,35,3.27,75.1.94,150.2,1.93,225.29Zm-233-600.29c-.3,13.87,9.33,23.76,23.45,24.08,12.55.28,20.41-7.3,20.76-20,.39-14.14-9.25-26-21.54-26.45C595.64,1098.85,585.2,1109.17,584.93,1121.7Zm35.54,274.21c12.78,0,20.68-7.65,20.89-20.32.21-12.86-12-26-24.27-26.18-10.72-.16-20,10-20,21.95C597.09,1388.26,604.33,1395.87,620.47,1395.91Z"/><path class="cls-5" d="M52,1116.51c20.49,12.19,41.31,19,61.75,26.51,5.8,2.13,9.9-2.55,13.32-6.76,4.34-5.35,8.52-10.83,12.8-16.3,10.24,10.33,8.6,24.65-4.24,39.89-6.12,7.25-14.18,12.17-21.63,17.82-9.79,7.42-19,3.58-28.64-.68-3.65-1.61-9.1-8.4-12-1-2.23,5.75,5.44,6.62,9.5,8.9,13.68,7.7,26.4,6.56,38.44-3.6,6.57-5.54,10-4.29,10.06,4.8.1,42.77-1.78,85.46-4.56,128.13-.79,12.09-1.93,24.39,1.26,36.53,2.35,8.93-1,17.91-2.22,26.52-2.58,18-1.67,35.82-1.76,53.71q-.41,77.22,0,154.45c0,8.8-2.81,13.19-11.05,17.72-14.61,8-29.39,15.22-44.62,22-24.27,10.84-46,1.6-68.35-4.93-4.23-1.24-3.64-5.93-3.64-9.58,0-38-1.78-76.11.64-114,1.88-29.4,1.9-58.7,1.51-88-.47-35.93,2.18-71.73,3.34-107.56,1.09-33.7,2.26-67.48,4.36-101.17,4-63.6,9-127,21.19-189.79,7.71-39.7,10.55-80.35,15.58-120.58,4.51-36,4.17-72.27,5.2-108.48.94-33.27,7.05-66.07,14.59-98.55C70.52,649.73,79.1,617.15,90,585.31c5.25-15.33,7.54-31.73,15.9-46,1.53-2.6.55-7.54,4.91-7.35,3.44.15,4.69,3.88,5.93,7,9.69,24.53,20.23,48.74,29.14,73.54,16.5,46,31.7,92.4,48.22,138.35,6.32,17.6,10.48,35.26,8.26,53.8-3.23,27-2.35,54.31-6.51,81.33-4.22,27.42-12.4,53.74-19,80.51-8.21,33.49-18.62,66.36-26.8,99.89-4.71,19.28-9.28,39.29-22.42,56-7.51,9.55-13.65,13.71-25.42,7.86s-24.13-9.81-36.2-14.74C62.15,1114,58.39,1112.81,52,1116.51Z"/><path class="cls-3" d="M692.9-45.7c-6.56-8.35-13.68-8.46-22.84-3.39-8.74,4.84-18.53,7.85-28,11.36-3.36,1.25-7,2-10.7.9-3.11-.92-6.58-6-9.27-1.4s2.23,8,5.3,11c2.62,2.52,5.9,4.44,9.8,2.1,1.08,5-3.92,6.56-5.68,10-1.5,2.9-7.12,5.63-2.7,9,3.89,2.94,6.38-2.13,8.34-4.87,5.2-7.25,11.76-10.48,20.86-10.07,6.47.29,11.81,2.72,17.26,5.51,2.47,1.26,5.82,3.64,7.6.5,2.25-4-2.19-5-4.68-7-7-5.45-15.88-5.51-23.66-8.66,23.63-6.24,33.58-2.87,42.08,14.24L687.6,4.94C676.72-5.4,664.5-9.17,650.47-7.7a23,23,0,0,0-20.69,24c.8,14.91,8,27.22,15.24,39.58,1,1.77,2.59,3.83,4.77,2.95,2.82-1.15,2.47-3.92,1.37-6.2-3.74-7.71-7.9-15.22-11.35-23.05-1.22-2.76-2.72-6.67,0-9.23,2.44-2.3,5.27.53,7.76,1.39,11.79,4.06,22.54,3.92,30.87-6.94,2.17-2.82,5.26-5.14,8.22-3.81,1.77.8,2.34,4.88,2.93,7.61,5.58,25.65,4.54,49.84-6.5,75-12.57,28.64-20,59.51-29.83,89.37-1.5,4.57-1.87,9.66-5.41,13.54-8.35-8.25-7.84-15.18-1-25.26,10.5-15.41,4.88-34,4.72-51.29,0-1.77-1.92-2.7-3.62-2.34-2.45.51-2.87,2.7-2.86,4.77.05,8.17.32,16.33.32,24.49,0,9.53-1.33,18.35-8.3,26.08-5.16,5.72-6.08,12.84-1,20.14,9.33,13.31,6.51,26.81-.06,40.4-3.62,7.49-11,5.73-16.79,8.06-8.45-.08-17-.78-25.35-.1-16.3,1.32-30.68-4.38-45-10.84-6.75-8.31-16.88-12.14-24.93-18.71-24.09-19.67-56.45-32.68-57.39-71.05-.89-6.87,5.83-15.17-3.81-20.41-2.51-23.91-9.25-47-14.52-70.3-3.54-15.67-1.77-29.24,8.42-41.17,9.25-10.84,9-22.73,6.34-35.37,11.09-10.18,23.07-16,38.65-10.2,5.83,2.18,12.45,2.28,18.71,3.33a77.69,77.69,0,0,0-41,13.55c-2.78,1.87-8.42,3.07-5.7,7.54s6.85.25,9.49-1.54c14.22-9.65,29.43-13.1,46.51-10.08,10.3,1.82,15,7.56,16,17.33C542.88-8.75,540-11.12,536-9.18a47.12,47.12,0,0,0-17-.48c-16.26-4.1-30.07,3.88-44.43,9.06-2,.72-3.47,2.14-3.19,4.56.34,2.9,2.6,3.1,4.46,2.3,5.54-2.4,8.1,1.88,11.44,4.61,16.18,13.21,33.69,17.41,53.27,7.84,2.07-1,4.42-1.47,7.53-2.46,1.47,14.15-7.37,23.48-12.73,34.06-1.44,2.83-4.29,6.2-.23,8.27,3,1.53,4.54-2.26,6.24-4.51C555.09,35.89,560.61,16.8,548-4.37c3.31-.86,5.91,6.19,9.16,1.3,2.09-3.15-1.57-5.73-3-8.45-2.76-5.18-8.09-8.93-8.6-15.36,11.46,1.38,21.76-2.3,31.68-7.42,2.16-1.12,4.42-2.83,3.2-5.71s-4-2.56-6.24-1.64c-11.11,4.54-21.51,1.48-31.9-2.56-6.81-2.64-14-4.47-20.51-7.69-19.29-9.55-37.54-12.59-53.49,6.11-.15.17-.77-.07-1.18-.12-.19-15.08,3-29.9,2.71-45.09-.41-18.38-5.82-34.3-17.43-48.43-10.39-12.64-20.71-25.5-33.49-35.64-9.6-7.62-6.86-12.17.57-18.61,28.39-24.61,61.95-35.34,98.75-38,60.82-4.35,106.46,25,146.48,66.3,23.11,23.88,26.53,37.15,21.92,80.59-11.33-14.5-24.24-9.88-37.13-5.37-6.93,2.43-14.21,4.16-20.74,7.39-21,10.42-41.48,9.51-62.14-1.14-8.68-4.48-18.34-7.07-26.95-11.67-16.86-9-32.41-4.18-48,3-2.68,1.23-5.89,2.85-4.28,6.17s5,1.73,7.45.3c18.2-10.74,36-8,53.2,2,31.61,18.58,63.54,21,96.42,3.58,3.56-1.89,7.6-2.92,11.49-4.14,17.35-5.46,30.41,2,34.46,19.82C691.81-58.52,694.47-52.37,692.9-45.7ZM624.24,140.61c-16.06-4.21-32.08-5.94-48.41-1-4.86,1.48-9.65,4.25-15.13,3.13,8.54-6.81,21-9.73,24-24.86-22.54,4.58-34.26,21.86-49.35,34.13-1.66.19-3.9,1.35-3.15,2.52,1.5,2.35,3.29.81,4.49-1,4,1.56,7.38-6.71,11.64-.71-.43,1.89.32,2.62,2.2,2.27a4.22,4.22,0,0,0,5.53-1.3,5.55,5.55,0,0,0,5.82-2.72l.73.14.47-.57c20.45-5.25,40.52-11.61,61.53-.32,7,3.77,2.52-5.07,4.34-7.54,2.61-.12,4.19,3.7,8.74,1.55-9.6-10-12.43-26.53-30.86-24.88,4.71-10.14,12.4-18,20.11-25.75,4.54-4.57,6.54-9.1,3.08-15.19-8-14-8.8-29.37-8.81-45,0-12.24-.35-24.51-1.29-36.71-1-13.16-15.83-20.48-26.18-13.32-2.24,1.55-5.49,3.32-3.46,6.68,1.63,2.69,4.09.68,6.42,0,11.72-3.58,16.59.09,16.84,12.62.29,14.69.48,29.39.48,44.09a61.38,61.38,0,0,0,5.29,24.92c5.65,13,3.4,17.38-10.5,21.25-7.63,2.12-13.5-2.66-18.8-6.64-4.77-3.59-2.13-9.09.32-13.33,8.44-14.58,3.14-30.37,4.3-45.58.16-2.15-1.09-4.38-3.37-4.31s-3.14,2.37-3.34,4.48a50.3,50.3,0,0,0-.25,7.33c1.24,24.3-2.33,46.9-21.29,64.64-4.22,3.95-.34,6.61,3,5.62,9.34-2.75,13.3,4,18.38,9,5.53,5.39,11.13,9.93,19.25,4.88C606.08,131.57,619.72,132.45,624.24,140.61ZM603,161.29c-11.82-.59-22.37,3.24-32.22,9.34-2.92,1.81-5.83,4.13-1.46,7.23,12.22,8.66,36.42,4.17,45.35-7.88,3.76-5.06,2.19-7.28-3.17-8.19A72.43,72.43,0,0,0,603,161.29Zm-91.86-24.52h-.28c.27-5.69.71-11.39.74-17.08,0-3.31,2.14-8.54-3.26-8.79-4-.19-3.68,4.71-3.81,7.8-.52,12.19-1,24.4-1.14,36.6-.13,10.11,3.13,18.51,13.53,22.27,4.55,1.64,5.31,5.49,6.81,9.34a61,61,0,0,0,6.56,11.56,3.34,3.34,0,0,0,5.26.57,3,3,0,0,0,.17-4.39c-7.07-8-4.4-23.1-19.22-25.79-4.14-.75-5.32-5.8-5.35-10.11C511.15,151.42,511.18,144.1,511.18,136.77Z"/><path class="cls-5" d="M404.73,499.31c10.29,40.6,20.07,80.26,30.42,119.78,9.54,36.4,19.81,72.52,35.45,107,35.3,77.81,69.85,156,104.9,233.89,3.67,8.17,4.26,17.6,3.48,25-2.21,21,.19,42.06-2.35,66.21-9.36-14.46-17.45-26.31-24.89-38.57-30.82-50.78-64.53-99.58-98.92-148-23-32.39-43.72-66.43-65.64-99.61-16.33-24.72-32.76-49.38-49.52-73.81-8.59-12.53-12-23.64-4.23-39.24C347,624.71,356.57,595.52,369,567.64,379.27,544.5,386.87,519.78,404.73,499.31Z"/><path class="cls-5" d="M584.26,1082.21c4.28-34.65-1.42-69.25,2.52-103.68,4.92-42.94,17.93-84.09,25.72-126.38,8.58-46.6,20.13-92.66,28.2-139.34,4.26-24.68,4.09-50.16,5.52-75.3,2.65-46.26,5-92.54,7.49-138.81.15-2.75-.6-6.22,3.15-7.06s5.78,2.44,8.09,4.63c27.57,26.1,53.22,53.88,74.46,85.49,7.26,10.8,13.83,22.11,21.77,32.37,6.28,8.12,5.2,15.44,1.48,23.82-25.12,56.52-49.9,113.19-75.14,169.66-21.26,47.55-40.65,95.8-57.61,145-13.77,40-28.1,79.77-42.18,119.64C586.53,1075.59,585.4,1078.9,584.26,1082.21Z"/><path class="cls-5" d="M724.76,415c17,9.4,28,25.5,41.94,38.28,24.92,22.8,49,46.72,78,64.49,9.89,6.06,12.31,13.77,12.86,25,2.32,47.16,4.58,94.3,4.42,141.52-.07,20.37-1.28,23.6-20.64,24.3-33.27,1.19-66.71,2.59-101.44-1.64,10.63-24.13,19.82-47.14,30.89-69.19,5.18-10.31,4.13-17.21-2.39-26.14-14.12-19.35-26.83-39.71-40.54-59.38-4.07-5.84-3-9.77.89-15.18,10.19-14.19,19.38-29.09,29.41-43.4,4.46-6.35,3.62-11.33-.11-17.81-11.53-20-22.27-40.49-33.32-60.78Z"/><path class="cls-5" d="M403.54,280.46c-.45,16-5.32,29.33-8.49,42.77-4.76,20.18-8.17,40.57-10.91,61-2.7,20.14,4.33,39.4,8,58.9,1.62,8.74,2.78,17.59,6,26,4.37,11.28,2.94,21.36-4.19,32.12-12.57,19-22.49,39.56-30.9,60.8-1,2.44-.64,6.23-4.26,6.83-4.28.71-5.42-3.42-6.85-5.92-10.3-18-20.71-35.89-34-52-8.79-10.64-17.26-21.55-26-32.23-5.79-7.09-10.48-13.6-6.19-24,10.05-24.45,19.56-49.16,28.12-74.17,7-20.5,21.88-35,35.77-50.17A432.4,432.4,0,0,1,403.54,280.46Z"/><path class="cls-5" d="M605.58,765.21c-4.21,2.15-4,6.21-3.28,9.64,10.35,46.36,2.34,91.22-11.67,136.67-9.77-9.2-15.88-21-22-32.42-10.48-19.52-14.91-40.52-16-63-2-40.67-3.09-81.37-5.17-122-1.51-29.39-.52-58.7-1.83-88-.47-10.54-1.68-21-2.27-31.58s8.87-7.53,14-9.77c7.5-3.24,4.15,4.15,5.83,6.81,6.92,11,7.76,23.8,11,35.88,1,3.61.08,8.79,6.26,8.77l1.11,4.23c-1.68.76-3.7,1.61-2.82,3.82.4,1,2.26,1.43,3.45,2.11,9.65,33.37,14.95,67.58,19.68,101.91-7,4.72-7.44,8.43,1.65,10.66a7.6,7.6,0,0,1,1.06,7.13c-8.08,5-8.18,9.9.12,14.76Z"/><path class="cls-3" d="M602,728.27c-4.74-34.32-10-68.53-19.7-101.9-.22-2-.42-4-.62-5.93l-1.11-4.23c-3.62-19.45-6-39.21-14-57.58-1-2.39-1.44-5-.12-6.93,11.48-17.05,16.05-37,23.72-55.66.92-2.23,1.37-4.8,4.57-4.8q8.36,26.75,16.73,53.49c.94,3,.94,7.27,4.8,7.71,4.94.56,5.2-4.36,6.41-7.54,6.66-17.49,13-35.09,19.8-52.53.81-2.08-.3-8,5.56-4.68-3.31,73.3-7.78,146.53-14.13,219.62-2.54,29.24-10,57.77-15.81,86.52-.64,3.17-1.24,6.57-5.15,7.35-4.33-11.6,0-24.94-7.36-35.94l-.78-4.39c-.25-4.92,1.91-9.85-.12-14.76a7.6,7.6,0,0,0-1.06-7.13Z"/><path class="cls-5" d="M619.19,281.95c17,26,36.82,47.41,52.42,72.12,8.34,13.22,20.36,24.25,28.66,37.84,17.7,29,35.65,57.79,51.49,87.87,2.54,4.83.78,7.94-1.3,11.13-9.34,14.3-19,28.37-28.51,42.58-2.64,4-5.32,4.6-8.86,1.14-19.23-18.78-37.87-38.18-56.92-57.11-6-5.95-6.07-18.91-6.86-28.82-2.33-29.19-7.25-58-13.18-86.53-4.58-22-7-44.93-17.93-65.33C616.41,293.51,616.62,293.35,619.19,281.95Z"/><path class="cls-5" d="M483,488.86l23.59,47.45c-19.91,25.42-34.61,53.39-42.33,84.93-2.64,10.79-3.7,22.22-10.58,31.63-6.52-5.77-6.54-14.29-8.47-21.72-11.66-44.81-23.09-89.69-34-134.7-7.8-32.33-15.45-64.75-21.51-97.44-3.21-17.33,3.82-34.45,6.59-51.6,1.55-9.59,4.75-18.92,6.45-28.49,1.42-8,4.18-7.71,9.12-2.73,12.93,13,25.83,26.07,39,38.89C468,371.87,485.47,388.28,505,402.45c4.87,3.54,14.54,3,14.45,8.93-.08,5.39-6.54,10.72-10.27,16a16.35,16.35,0,0,1-2.63,2.41c-4.66-4.52-9.29-9.06-14-13.56-17.33-16.68-34.28-33.78-52.13-49.88-14.91-13.45-19.62-12-23.56,7.23-9.24,45-10.29,88.89,19.77,128.15,8.14,10.63,14.31,22.76,21.63,34,1.53,2.36,2,6.24,6.56,6.18C471.36,524.37,475,505.87,483,488.86Z"/><path class="cls-5" d="M494.68,318.86c3.38-5.34.65-10.35-1.22-15.14-11.27-28.86-13.29-60.13-23.44-89.28-.8-2.29-1.26-5.22,1.09-6.73s4.65.53,6.83,1.47c26.48,11.44,53,22.63,80,33,14.23,5.49,28.46,6.44,43.06,5.67,9.38-.5,12.46,3,11.47,12-1.66,14.9,1.42,30-1.87,44.87-4.79,1.9-6.89,6.42-10,10-8.95,10.39-15.18,23.33-28,30.16.31-2,0-4.38,1-5.8,11.24-15.31,14.66-33.12,17-51.35.52-4,2.9-9.49-2.09-10.42-5.39-1-3.38,5.31-3.75,8.23-2.7,21.72-9.63,41.8-22.26,59.76-2.79,4-3,8.18-2.18,12.68-8.61,2.19-16.21-.22-22.71-5.76-8.35-7.11-16.23-14.78-24.54-21.94-2.74-2.36-3.87-7.71-9.33-5.82q-.06-1.57-.11-3.14l-2.1.48c-2.44-.54-3.12-5.27-6.8-2.87Z"/><path class="cls-3" d="M572.64,344.92c12.78-6.83,19-19.77,28-30.16,3.11-3.61,5.2-8.13,10-10-1.17,11.34-2.83,22.66-3.4,34-.71,14.36-6.74,25.47-17.13,35.23-14.35,13.48-31.52,23.29-45.94,36.59-2,1.84-3.54,1.72-6.34.64C484.64,390.55,452.18,344.9,412.49,308c-5.57-5.18-3.52-11.21-2.9-17.13,1.95-18.66,4-37.31,6.06-56,6.66,2.79,10.16,9,15.1,13.72,17.41,16.53,32.78,35.33,53.52,48.16l10.41,22.08.16.11a19.16,19.16,0,0,0,4,10.45c1.63,9.65,6.32,18.22,9.63,27.27,1,2.65,2.31,6,5.9,4.31s1.52-4.73.58-7.31q-5.4-14.71-10.75-29.43l-.32.23c5.46-1.89,6.58,3.46,9.33,5.82,8.31,7.16,16.19,14.83,24.54,21.94,6.5,5.53,14.1,7.95,22.72,5.76a32.87,32.87,0,0,0,.65,5.94c.91,3.1-.78,8.77,4.23,8.33s3.53-5.94,2.53-8.8C565.23,356,569.1,350.59,572.64,344.92Z"/><path class="cls-3" d="M453.66,652.88c6.88-9.41,7.94-20.84,10.58-31.63,7.72-31.55,22.42-59.51,42.33-84.93,10.51,16,15.5,32.86,15.28,52.66-.81,72.56,3.57,145.13-.39,217.7-.21,3.93-.51,7.85-2.6,12.26-9.81-22.16-19.82-44.23-29.36-66.5q-14.45-33.7-28.12-67.73C457.27,674.52,454.15,664,453.66,652.88Z"/><path class="cls-3" d="M483,488.86c-7.94,17-11.62,35.51-18.15,53.12-4.52.06-5-3.82-6.56-6.18-7.32-11.28-13.49-23.41-21.63-34-30.06-39.26-29-83.13-19.77-128.15,3.94-19.22,8.65-20.68,23.56-7.23,17.85,16.1,34.8,33.2,52.13,49.88,4.68,4.5,9.31,9,14,13.56C498.22,449.31,488.7,468.33,483,488.86Z"/><path class="cls-3" d="M629.15,361q6.51,40.74,13,81.49c1.78,11.31,2.14,22.63-.46,33.9l-24.25,63.81-18.35-51.88-19.21-58.61C599.06,408.81,618.42,388,629.15,361Z"/><path class="cls-5" d="M526.15,490.52c0-9.82-.45-17.61.11-25.33.81-11.2,5.69-18.77,18-21.16a135.09,135.09,0,0,1,24.23-2c3.44,0,7.51.43,8.59,3.53,4.71,13.47,13.68,25.85,8.83,41.72-6.53,21.38-15.76,41.63-24.07,62.27-2.19,5.44-6.1,8.86-11.66,9.6-5.37.71-7.36-3.93-9.93-7.66C527.08,532.34,525,510.78,526.15,490.52Z"/><path class="cls-5" d="M783.85,755.48c-15,2.39-29.72-3.14-44.84-2.17-1.95.13-4.75,0-5.8-1.19-8.6-9.76-.69-20.19-.33-30.24.24-6.63,7-8.28,13.25-7.54,32.86,3.87,65.69,3.42,98.58.07,14.78-1.51,15.13-.64,12.54,13.88-3.68,20.6-5.67,23.81-24.57,24.64C816.44,753.65,800.39,757.73,783.85,755.48Z"/><path class="cls-5" d="M484.27,296.78c-20.74-12.83-36.11-31.63-53.52-48.16-4.93-4.68-8.44-10.93-15.1-13.72q0-60.84,0-121.66l1.92-.28c5.23,19.82,10.76,39.56,15.57,59.48C436,184.16,440.4,194,452.93,198a11.83,11.83,0,0,1,8.33,8.27C469.42,236.3,478.13,266.21,484.27,296.78Z"/><path class="cls-5" d="M629.15,361c-10.73,27-30.09,47.79-49.28,68.71C574.79,424,572,416.23,565.21,412s-4.15-7.52.54-10.89c9.6-6.9,18.29-14.92,27.42-22.38,15.7-12.82,20.5-29.63,21-48.69.15-5.47-1-11.26,3.41-19C622.89,329.15,627.11,344.8,629.15,361Z"/><path class="cls-5" d="M466.65,140.81c.93,38.38,33.3,51.39,57.39,71.05,8.05,6.57,18.18,10.4,24.93,18.71-16.14-2.66-30.24-10.88-45.13-16.86-17.65-7.08-34.83-15.35-52.14-23.27-3-1.37-8.85-3.74-3.76-7.37C462.83,172.45,464.88,156.85,466.65,140.81Z"/><path class="cls-5" d="M599.08,488.34l18.35,51.88,24.25-63.81c9.24-.27,7.23,5.81,6.34,11.25-5.86-3.32-4.75,2.6-5.56,4.68-6.77,17.45-13.14,35-19.8,52.53-1.21,3.18-1.47,8.1-6.41,7.54-3.86-.44-3.86-4.72-4.8-7.71Q603,518,594.73,491.22Z"/><path class="cls-3" d="M382.79-7.44c-3.38-9.38-9.85-11.31-18.62-7.74,6.64-17.94,9.53-18.52,24.63-8.1,10.59,7.3,14.79,18,19.14,29.07,1.93,4.9,4.19,9.67,6.3,14.5l-5.87,6.21C399.82,15.22,394.55,1.44,382.79-7.44Z"/><path class="cls-5" d="M724.72,415.07l-1.81-2.63.94-.61.92,3.2Z"/><path class="cls-4" d="M382.79-7.44c11.76,8.88,17,22.65,25.58,34-.59,6.86.44,13.83-2.17,20.55-3.82,9.81,4.46,15.46,9.26,22.64-10.29-.2-16.67-7.42-16.43-17.8a41.21,41.21,0,0,1,1.22-7.18c1.22-6,2.89-12.07-1.1-17.64-1.34-1.87-4-2.17-5.3-.35-4.36,6.09-11,11.15-9.2,20.19,3,14.44,5.14,29.29,22.95,33.6.89.22,1.46,1.77,2.21,2.75-8.42,3.18-18-.11-22.82-8.91-9-16.6-13.13-33.54.35-50.13,3.52-4.33,6.75-9.07,2.21-14.12C386,6.13,384.2-1.57,377.33-.23c-5.54,1.08-7.07,7.35-8.64,12.46-4.16,13.49-1.82,27.22-1.14,40.93-1.13,0-2.48.18-2.55,0-5.19-17.09-5.72-34.22,1.91-50.62C369.68-3.44,375.65-7,382.79-7.44Z"/><path class="cls-3" d="M645.5.13c.95,5-.29,9,2.73,13.2C636.41,9.44,636.41,9.44,645.5.13Z"/><path class="cls-5" d="M607.06,119c-8.11,5.06-13.72.52-19.25-4.88-5.08-4.95-9-11.73-18.38-9-3.37,1-7.24-1.67-3-5.62,19-17.73,22.53-40.34,21.29-64.64a50.3,50.3,0,0,1,.25-7.33c.2-2.1,1.1-4.41,3.34-4.48s3.53,2.16,3.37,4.31c-1.15,15.21,4.14,31-4.3,45.58-2.45,4.24-5.09,9.74-.32,13.33,5.3,4,11.17,8.76,18.8,6.64,13.9-3.87,16.15-8.28,10.5-21.25a61.38,61.38,0,0,1-5.29-24.92c0-14.7-.2-29.4-.48-44.09-.24-12.53-5.11-16.2-16.84-12.62-2.33.71-4.79,2.73-6.42,0-2-3.36,1.21-5.13,3.46-6.68,10.35-7.16,25.17.17,26.18,13.32.94,12.2,1.28,24.47,1.29,36.71,0,15.63.85,31,8.81,45,3.47,6.09,1.46,10.62-3.08,15.19-7.71,7.76-15.4,15.61-20.11,25.75C606.87,119.42,607.06,119,607.06,119Z"/><path class="cls-5" d="M536-9.18c4-1.94,6.88.43,9.76,2.68l-.19-.27c.39,1.44.8,2.85,2.75,2.7l-.31-.3c12.6,21.18,7.08,40.26-6.69,58.43-1.7,2.24-3.25,6-6.24,4.51-4.06-2.08-1.2-5.44.23-8.27,5.36-10.58,14.21-19.91,12.73-34.06-3.11,1-5.46,1.45-7.53,2.46-19.57,9.58-37.08,5.37-53.27-7.84-3.35-2.73-5.9-7-11.44-4.61-1.86.8-4.12.6-4.46-2.3-.28-2.42,1.2-3.84,3.19-4.56C488.89-5.78,502.7-13.76,519-9.66c-1,6.62-.12,13.27,7.29,14.58,8.3,1.48,7.05-7.1,9.43-11.7A7.36,7.36,0,0,0,536-9.18ZM487.82,2.19c8.52,8.09,17.1,13.4,28.21,15.24-3-3.55-7.25-6.21-7.85-9.53C505.49-6.9,497.62-3.39,487.82,2.19Z"/><path class="cls-5" d="M603,161.29a72.43,72.43,0,0,1,8.5.5c5.35.92,6.92,3.13,3.17,8.19-8.93,12-33.13,16.53-45.35,7.88-4.37-3.09-1.46-5.42,1.46-7.23C580.68,164.53,591.22,160.7,603,161.29Z"/><path class="cls-5" d="M511.18,136.77c0,7.33,0,14.65,0,22,0,4.31,1.21,9.36,5.35,10.11,14.82,2.69,12.16,17.75,19.22,25.79a3,3,0,0,1-.17,4.39,3.34,3.34,0,0,1-5.26-.57,61,61,0,0,1-6.56-11.56c-1.5-3.84-2.26-7.69-6.81-9.34-10.4-3.76-13.67-12.16-13.53-22.27.16-12.2.62-24.41,1.14-36.6.13-3.09-.19-8,3.81-7.8,5.4.26,3.28,5.48,3.26,8.79,0,5.69-.47,11.39-.74,17.08Z"/><path class="cls-4" d="M548.37,152.78c-4.26-6-7.65,2.27-11.64.71q-.69-.72-1.34-1.48c15.09-12.27,26.81-29.55,49.35-34.13-3,15.13-15.49,18.06-24,24.86-5.41,4.52,2.09,5.08,2.41,7.84l-.47.57-.73-.14-6.23-.91-1.2-5.19c-.3.22-.79.39-.88.68-.59,2-.12,3.67,1.85,4.71l.65,3.44a4.22,4.22,0,0,1-5.53,1.3Z"/><path class="cls-5" d="M563.11,150.6c-.31-2.76-7.81-3.32-2.41-7.84,5.47,1.12,10.26-1.65,15.13-3.13,16.33-5,32.36-3.23,48.41,1l-.16-.36c.51,3.34,1.83,5.06,5.23,2.61l-.33-.11c-1.82,2.47,2.68,11.3-4.34,7.54C603.63,139,583.56,145.35,563.11,150.6Z"/><path class="cls-4" d="M607.06,119s-.19.39-.19.39c18.42-1.65,21.25,14.86,30.85,24.88-4.55,2.16-6.13-1.67-8.74-1.55l.33.11c-1.29-1.78-2.92-2.88-5.23-2.61l.16.36C619.72,132.45,606.08,131.57,607.06,119Z"/><path class="cls-4" d="M536-9.18a7.36,7.36,0,0,1-.33,2.41c-2.38,4.6-1.13,13.17-9.43,11.7-7.4-1.32-8.3-8-7.29-14.58A47.12,47.12,0,0,1,536-9.18Z"/><path class="cls-4" d="M536.72,153.5c-1.2,1.85-3,3.39-4.49,1-.75-1.17,1.49-2.33,3.15-2.52Q536,152.78,536.72,153.5Z"/><path class="cls-5" d="M555.69,150.12l6.23.92a5.54,5.54,0,0,1-5.82,2.72l-.65-3.44Z"/><path class="cls-5" d="M548.37,152.78l2.2,2.27C548.69,155.41,547.93,154.67,548.37,152.78Z"/><path class="cls-4" d="M604.68,746.06c2,4.9-.14,9.84.12,14.76C596.5,756,596.61,751,604.68,746.06Z"/><path class="cls-4" d="M602,728.27l1.65,10.66C594.53,736.7,595,733,602,728.27Z"/><path class="cls-4" d="M581.65,620.43c.2,2,.4,4,.62,5.93-1.18-.69-3-1.11-3.44-2.12C577.94,622,580,621.2,581.65,620.43Z"/><path class="cls-4" d="M572.64,344.92c-3.54,5.67-7.41,11-4.79,18.57,1,2.87,2.38,8.37-2.53,8.8s-3.32-5.24-4.23-8.33a32.87,32.87,0,0,1-.65-5.94c-.86-4.5-.61-8.71,2.18-12.69,12.63-18,19.56-38,22.26-59.76.36-2.92-1.64-9.24,3.75-8.23,5,.94,2.62,6.41,2.09,10.42-2.39,18.24-5.8,36-17,51.35C572.62,340.54,572.95,343,572.64,344.92Z"/><path class="cls-4" d="M498.82,329.42a19.16,19.16,0,0,1-4-10.45c3.68-2.39,4.35,2.34,6.79,2.88a1.1,1.1,0,0,1,.42,1.73C501.42,325.77,501.35,328.27,498.82,329.42Z"/><path class="cls-3" d="M502.05,323.57a1.1,1.1,0,0,0-.42-1.73l2.1-.48q.06,1.57.11,3.14l.32-.23A3.14,3.14,0,0,0,502.05,323.57Z"/><path class="cls-5" d="M502.05,323.57a3.14,3.14,0,0,1,2.11.69q5.37,14.71,10.75,29.43c.94,2.57,3.1,5.63-.58,7.31s-4.93-1.66-5.9-4.31c-3.31-9.05-8-17.62-9.63-27.27C501.35,328.27,501.42,325.77,502.05,323.57Z"/><path class="cls-5" d="M555.45,150.31c-2-1-2.44-2.69-1.85-4.71.08-.29.58-.46.88-.68l1.2,5.19Z"/><path class="cls-3" d="M624.09,140.25c2.31-.27,3.94.83,5.23,2.61C625.92,145.31,624.59,143.59,624.09,140.25Z"/></g></svg>