<?xml version="1.0" encoding="UTF-8" standalone="no"?>
<svg
   xmlns:dc="http://purl.org/dc/elements/1.1/"
   xmlns:cc="http://creativecommons.org/ns#"
   xmlns:rdf="http://www.w3.org/1999/02/22-rdf-syntax-ns#"
   xmlns:svg="http://www.w3.org/2000/svg"
   xmlns="http://www.w3.org/2000/svg"
   xmlns:sodipodi="http://sodipodi.sourceforge.net/DTD/sodipodi-0.dtd"
   xmlns:inkscape="http://www.inkscape.org/namespaces/inkscape"
   id="Calque_1"
   data-name="Calque 1"
   viewBox="0 0 1001.9999 1001.9999"
   version="1.1"
   inkscape:version="0.91 r"
   sodipodi:docname="logo.svg"
   width="1001.9999"
   height="1001.9999">
  <metadata
     id="metadata118">
    <rdf:RDF>
      <cc:Work
         rdf:about="">
        <dc:format>image/svg+xml</dc:format>
        <dc:type
           rdf:resource="http://purl.org/dc/dcmitype/StillImage" />
        <dc:title>Plan de travail 1</dc:title>
      </cc:Work>
    </rdf:RDF>
  </metadata>
  <sodipodi:namedview
     pagecolor="#ffffff"
     bordercolor="#666666"
     borderopacity="1"
     objecttolerance="10"
     gridtolerance="10"
     guidetolerance="10"
     inkscape:pageopacity="0"
     inkscape:pageshadow="2"
     inkscape:window-width="1366"
     inkscape:window-height="716"
     id="namedview116"
     showgrid="false"
     fit-margin-top="1"
     fit-margin-left="1"
     fit-margin-right="1"
     fit-margin-bottom="1"
     inkscape:zoom="0.236"
     inkscape:cx="417.44001"
     inkscape:cy="417.43996"
     inkscape:window-x="0"
     inkscape:window-y="0"
     inkscape:window-maximized="1"
     inkscape:current-layer="Calque_1" />
  <defs
     id="defs3">
    <style
       id="style5">.cls-1{fill:none;}.cls-2{clip-path:url(#clip-path);}.cls-3{fill:#fff;}.cls-4{fill:#171b1d;}.cls-5{fill:#2b3138;}</style>
    <clipPath
       id="clip-path">
      <circle
         class="cls-1"
         cx="500"
         cy="500"
         r="416.44"
         id="circle8"
         style="fill:none" />
    </clipPath>
  </defs>
  <title
     id="title10">Plan de travail 1</title>
  <g
     class="cls-2"
     id="g12"
     clip-path="url(#clip-path)"
     transform="matrix(1.2006531,0,0,1.2006531,-99.32657,-99.32657)">
    <path
       class="cls-3"
       d="m -550.3,1581 q 0,-1078.88 -0.23,-2157.75 c 0,-9.19 2.07,-11.27 11.26,-11.26 q 1092.36,0.37 2184.72,0 c 9.19,0 11.26,2.07 11.26,11.26 q -0.36,2159 0,4318 c 0,9.19 -2.06,11.27 -11.26,11.26 q -1092.36,-0.37 -2184.72,0 c -9.19,0 -11.27,-2.06 -11.26,-11.26 q 0.38,-1080.17 0.23,-2160.25 z m 774.78,1584.6 a 6,6 0 0 0 4.48,-3.69 c 1.75,0.28 2.85,-0.38 3.17,-2.19 3.68,-1.71 7,-3.87 9.19,-7.42 9.75,-3.74 13.84,-11 15.54,-21.23 8.9,-53.55 18.42,-107 27.63,-160.48 24.12,-140 50.3,-279.6 70.9,-420.19 6,-40.72 8.75,-82.07 20.18,-121.85 31.91,-111 64.64,-221.81 96.15,-332.95 16.47,-58.09 31.06,-116.71 46.49,-175.08 l 3.93,-15.52 c 2.77,-4.2 3.72,-8.92 4,-13.84 l 2.24,-4.27 c 5.16,1 3.39,6.15 5.38,9.06 -0.44,5.81 -0.39,11.58 1.75,17.13 -0.55,4.94 -0.61,9.85 1,14.65 a 24,24 0 0 0 1.58,12.32 21.82,21.82 0 0 0 0.74,12.24 c 0.61,11.35 0.9,22.72 1.88,34 3.93,45.56 7.67,91.14 12.3,136.63 2.86,28.16 2.74,56.58 7.59,84.55 a 3.75,3.75 0 0 0 0.45,4.66 256.44,256.44 0 0 0 2,39.49 13.67,13.67 0 0 0 0.4,9.55 184.7,184.7 0 0 0 2,37 7.73,7.73 0 0 0 0.46,7.1 149.87,149.87 0 0 0 2,34.59 8.11,8.11 0 0 0 0.34,7.12 141.28,141.28 0 0 0 2.13,32.12 14.15,14.15 0 0 0 0.44,9.53 c -0.5,14 2.39,28 0,42.07"
       id="path14"
       inkscape:connector-curvature="0"
       style="fill:#ffffff" />
    <path
       class="cls-4"
       d="m 574.93,3104.76 c -2.33,-9.72 -2.08,-19.59 -1.69,-29.46 3,-4.9 3.14,-9.73 -0.34,-14.48 -3.18,-39.25 -2,-78.58 -2.26,-117.88 2.94,-3.3 3,-6.52 -0.28,-9.64"
       id="path16"
       inkscape:connector-curvature="0"
       style="fill:#171b1d" />
    <path
       class="cls-5"
       d="m 935.89,1628.3 c -6.57,-3.68 -11.64,-0.23 -16.78,3.4 -9.93,7 -20,13.73 -31.71,17.7 -6.94,2.35 -9.38,0.06 -10.75,-6.81 -4.76,-23.8 -10.4,-47.43 -15.1,-71.24 -2.19,-11.1 -4.2,-22.47 -4.18,-33.71 0.07,-39.54 -4.76,-78.79 -5.74,-118.3 -0.73,-29.6 -3.24,-59.24 -4.73,-88.88 -1.39,-27.59 -3.09,-55.18 -4.48,-82.78 -0.52,-10.27 2.48,-17 14.48,-15.07 7.37,1.19 5.92,-3.51 3.28,-6.15 -12.08,-12.09 -22.64,-25.86 -37.24,-35.22 -8.43,-5.4 -13.55,-20.61 -9.63,-29.73 1.79,-4.16 5,-4 8.07,-2.5 2.48,1.2 4.41,3.54 6.61,5.35 13.62,11.21 24.34,9.91 35.4,-3.92 3.77,-4.71 3.7,-6.48 -2.89,-7.46 -15.8,-2.34 -19.29,-7.21 -20.6,-23.27 -3.35,-41 -3.41,-82.16 -5.5,-123.18 -1.6,-31.43 -1.74,-62.78 -1.5,-94.12 0.3,-39.91 5.6,-79.18 17.07,-117.76 15.15,-51 23,-103.28 19.22,-156.66 -2.14,-30 -4.45,-60 -4.69,-90.16 -0.05,-6.85 1,-12.87 5.31,-18.21 14.27,10.16 28.48,20.42 42.84,30.44 4.63,3.23 5.55,7.52 5.56,12.72 0.25,85.32 5.42,170.93 -4.95,255.81 -9.56,78.25 -9,156.43 -6.56,234.76 1.43,45.3 9.81,90 15.41,134.95 5.64,45.32 12.09,90.55 13.62,136.27 -3.25,0.15 -5,1.66 -4.83,5.1 0.17,3.44 2.23,4.65 5.41,4.48 a 53.5,53.5 0 0 1 2.06,22.37 c -2,-0.34 -4.68,-2.78 -5.05,1.61 -0.33,3.91 1.72,5.76 5.55,5.82 a 41.18,41.18 0 0 1 1.89,19.51 c -4.36,0.11 -5.17,2.9 -5.07,6.54 0.12,4.12 2.26,5.74 6.19,5.38 a 27.08,27.08 0 0 1 1.25,15 c -3.3,-1.47 -5.35,-1.18 -5.09,3.22 0.26,4.4 -0.84,9.44 6.25,8.91 a 34.8,34.8 0 0 1 1.32,17.31 l -5.89,-7.13 c 2.4,7.38 -3.63,15.08 6.93,16.6 2.15,5.7 2.25,11.56 1.37,17.49 -4.55,-2.31 -0.41,-8.65 -8.75,-13.11 3.6,9.66 -1.52,18.67 10,22.59 2,6.56 2,13.25 1.38,20 -1.84,-0.35 -3.67,-4.14 -4.49,-2.34 -1.75,3.86 -0.28,7.27 5.06,6.91 2.6,7.29 2.25,14.83 1.83,22.36 -1.71,0.33 -4.19,0 -3.83,2.7 0.34,2.51 2.74,1.8 4.48,1.91 2.56,7.31 2.09,14.87 1.87,22.41 l -4.68,-2.75"
       id="path18"
       inkscape:connector-curvature="0"
       style="fill:#2b3138" />
    <path
       class="cls-5"
       d="m 619.23,247.62 q 0,-3.05 0.07,-6.1 c 5.75,-2.33 13.17,-0.57 16.79,-8.06 6.57,-13.58 9.4,-27.09 0.06,-40.4 -5.12,-7.3 -4.19,-14.42 1,-20.14 7,-7.73 8.29,-16.55 8.3,-26.08 0,-8.16 -0.26,-16.33 -0.32,-24.49 0,-2.07 0.41,-4.26 2.86,-4.77 1.71,-0.35 3.61,0.57 3.62,2.34 0.17,17.32 5.78,35.88 -4.72,51.29 -6.87,10.08 -7.37,17 1,25.26 3.54,-3.88 3.91,-9 5.41,-13.54 9.81,-29.86 17.26,-60.73 29.83,-89.37 11,-25.16 12.08,-49.35 6.5,-75 -0.59,-2.72 -1.16,-6.81 -2.93,-7.61 -3,-1.33 -6.05,1 -8.22,3.81 -8.34,10.86 -19.08,11 -30.87,6.94 -2.49,-0.86 -5.32,-3.69 -7.76,-1.39 -2.71,2.56 -1.21,6.46 0,9.23 3.45,7.83 7.61,15.35 11.35,23.05 1.11,2.28 1.46,5 -1.37,6.2 -2.18,0.89 -3.73,-1.18 -4.77,-2.95 -7.22,-12.36 -14.44,-24.67 -15.24,-39.58 a 23,23 0 0 1 20.69,-24 c 14,-1.46 26.25,2.3 37.13,12.64 l 9.05,-21.47 c 1.9,-3.46 3.83,-0.39 5.74,0 -9.67,18.57 -6.77,37.66 -2.87,57 2.37,11.74 1.81,23.61 -2.84,34.91 -19.9,48.38 -33.12,99 -49.66,148.51 -4.79,14.31 -11.45,24.15 -27.83,23.77 z M 645.5,0.13 c -9.09,9.31 -9.09,9.31 2.73,13.2 -3.01,-4.21 -1.78,-8.22 -2.73,-13.2 z"
       id="path20"
       inkscape:connector-curvature="0"
       style="fill:#2b3138" />
    <path
       class="cls-5"
       d="m 306.22,381.33 q -9.63,25.48 -19.27,51 c -1.88,5 -3,10.4 -5.89,14.71 -11.2,16.94 -3,29.5 8.49,41.59 24.9,26.13 43.86,56.47 62.08,87.36 3.87,6.55 0.56,11.74 -1.7,17.22 -8.86,21.42 -17,43.18 -27.19,64 -5.8,11.86 -2.67,20.41 3.69,30 24.24,36.66 47.88,73.71 72.3,110.24 22.13,33.09 44.91,65.75 67.55,98.5 31.47,45.53 60.51,92.65 91,138.74 15.9,24 20,48.15 17.63,74.87 -3.35,37.47 -0.37,75.09 -2.89,112.46 -1.6,23.68 -2.51,47.33 -1.41,70.83 1.78,38.08 6,76 10.59,113.92 2.69,22.15 6.86,44.16 8.35,66.39 1.66,24.71 -8.83,47.06 -18.22,69 -17,39.73 -37.26,77.73 -60,114.63 -22.87,37.15 -56.13,54.66 -97.69,60.29 -23.55,3.19 -47.22,3.31 -70.79,2.17 -33.28,-1.62 -47.93,-20.52 -45.6,-51.45 3.48,-46.2 13.53,-91.45 24,-136.53 1.93,-8.35 2.65,-17 3.56,-25.22 2,-18.21 13.4,-26.3 27.88,-33 a 619.17,619.17 0 0 0 62.27,-33.7 c 5.86,-3.57 11.29,-6.75 14.66,-13.71 5.46,-11.25 17,-8.45 26.26,-7.37 14.2,1.66 22.58,-5 28.38,-16.32 5.27,-10.31 4.11,-22.07 1.58,-32.25 -1.91,-7.67 -12.41,-8.52 -20.09,-8.09 A 100.44,100.44 0 0 1 416,1352 c -21.27,-10.15 -42.49,-20.4 -63.53,-31 -23.21,-11.72 -30.64,-33.49 -34.55,-56.94 -5.47,-32.81 -9.55,-65.77 -12.94,-98.9 -4.77,-46.63 0.66,-92.48 4.94,-138.6 1.09,-11.71 0.86,-23.58 2.95,-35.21 3.1,-17.28 -8.22,-29.53 -15.63,-42.56 -15.84,-27.85 -34.06,-54.29 -48.49,-83 -20.49,-40.8 -36.66,-83.2 -50.9,-126.53 -22.61,-68.82 -45.37,-137.72 -75,-203.85 -7,-15.62 -3.45,-20.2 7.09,-30.31 32.55,-31.3 70.25,-55.23 107.06,-80.6 22.06,-15.2 43.6,-31.13 69.22,-43.17 z"
       id="path22"
       inkscape:connector-curvature="0"
       style="fill:#2b3138" />
    <path
       class="cls-5"
       d="m 817.89,1722 c -15.52,-0.16 -31.07,0.28 -46.55,-0.62 -20.12,-1.17 -37.36,-10.56 -53.69,-21.49 -13.18,-8.82 -25.09,-19.85 -39,-27.17 -24.56,-12.92 -30.43,-37.24 -38.48,-59.67 -15.79,-43.95 -33.68,-87.39 -41.53,-133.78 -4.46,-26.37 -7.79,-53 -11,-79.52 -7.41,-60.66 -12.88,-121.54 -9.53,-182.67 1.75,-31.81 1.06,-63.59 2.34,-95.35 0.76,-18.86 10.76,-35.52 16.62,-53.09 18.27,-54.79 37.1,-109.44 57.41,-163.51 14.29,-38.06 31.25,-75.13 47.18,-112.58 5.7,-13.4 11.87,-26.61 19,-42.53 4.33,11.49 12.48,11.26 20.71,10.78 11.86,-0.7 23.52,1.6 35.28,2.24 a 237.26,237.26 0 0 0 59.5,-4.29 c 11.68,-2.33 13.76,-0.24 11.31,11.11 -9.33,43.36 -19.84,86.32 -40.79,126 -8.11,15.35 -15,31.36 -22,47.27 -2.75,6.26 -3.92,12.59 -2.08,20.07 6.27,25.52 11.38,51.32 16.88,77 a 37.55,37.55 0 0 1 1.21,8.41 c -0.74,39.17 2.12,78.27 3.21,117.37 1.09,39.1 1.28,78.14 4.25,117.12 0.76,10 -2.66,17.74 -10.63,24.55 -12.4,10.59 -25.13,20.67 -38.32,30.21 -3.13,2.26 -9.44,4.3 -6.52,8.56 3.43,5 7.82,-0.48 10.9,-2.89 11.52,-9 24.27,-16.43 34.6,-27 2.35,-2.41 4.54,-7.21 8.73,-4.91 3.17,1.74 3.24,6.16 3.71,9.92 1.3,10.47 -1.59,17.18 -12.27,21.93 -19.85,8.82 -41.09,9.27 -61.79,13 -17.11,3.1 -21.41,8.87 -18.87,25.76 0.72,4.81 1.94,9.59 2.15,14.41 0.62,14.13 5.15,19.76 19.47,18.57 a 350.42,350.42 0 0 0 67,-12 c 6.83,-1.94 9.59,-1.38 9.36,6.57 -0.44,15.51 -0.08,31.05 -0.14,46.58 0,2.31 0.87,5.26 -1.8,6.6 -2.67,1.34 -4.31,-1.35 -6.12,-2.79"
       id="path24"
       inkscape:connector-curvature="0"
       style="fill:#2b3138" />
    <path
       class="cls-5"
       d="m 52,1116.51 c 20.49,12.19 41.31,19 61.75,26.51 5.8,2.13 9.9,-2.55 13.32,-6.76 4.34,-5.35 8.52,-10.83 12.8,-16.3 10.24,10.33 8.6,24.65 -4.24,39.89 -6.12,7.25 -14.18,12.17 -21.63,17.82 -9.79,7.42 -19,3.58 -28.64,-0.68 -3.65,-1.61 -9.1,-8.4 -12,-1 -2.23,5.75 5.44,6.62 9.5,8.9 13.68,7.7 26.4,6.56 38.44,-3.6 6.57,-5.54 10,-4.29 10.06,4.8 0.1,42.77 -1.78,85.46 -4.56,128.13 -0.79,12.09 -1.93,24.39 1.26,36.53 2.35,8.93 -1,17.91 -2.22,26.52 -2.58,18 -1.67,35.82 -1.76,53.71 q -0.41,77.22 0,154.45 c 0,8.8 -2.81,13.19 -11.05,17.72 -14.61,8 -29.39,15.22 -44.62,22 -24.27,10.84 -46,1.6 -68.35,-4.93 -4.23,-1.24 -3.64,-5.93 -3.64,-9.58 0,-38 -1.78,-76.11 0.64,-114 1.88,-29.4 1.9,-58.7 1.51,-88 -0.47,-35.93 2.18,-71.73 3.34,-107.56 1.09,-33.7 2.26,-67.48 4.36,-101.17 4,-63.6 9,-127 21.19,-189.79 7.71,-39.7 10.55,-80.35 15.58,-120.58 4.51,-36 4.17,-72.27 5.2,-108.48 0.94,-33.27 7.05,-66.07 14.59,-98.55 7.69,-32.78 16.27,-65.36 27.17,-97.2 5.25,-15.33 7.54,-31.73 15.9,-46 1.53,-2.6 0.55,-7.54 4.91,-7.35 3.44,0.15 4.69,3.88 5.93,7 9.69,24.53 20.23,48.74 29.14,73.54 16.5,46 31.7,92.4 48.22,138.35 6.32,17.6 10.48,35.26 8.26,53.8 -3.23,27 -2.35,54.31 -6.51,81.33 -4.22,27.42 -12.4,53.74 -19,80.51 -8.21,33.49 -18.62,66.36 -26.8,99.89 -4.71,19.28 -9.28,39.29 -22.42,56 -7.51,9.55 -13.65,13.71 -25.42,7.86 -11.77,-5.85 -24.13,-9.81 -36.2,-14.74 -3.86,-1.5 -7.62,-2.69 -14.01,1.01 z"
       id="path26"
       inkscape:connector-curvature="0"
       style="fill:#2b3138" />
    <path
       class="cls-3"
       d="m 692.9,-45.7 c -6.56,-8.35 -13.68,-8.46 -22.84,-3.39 -8.74,4.84 -18.53,7.85 -28,11.36 -3.36,1.25 -7,2 -10.7,0.9 -3.11,-0.92 -6.58,-6 -9.27,-1.4 -2.69,4.6 2.23,8 5.3,11 2.62,2.52 5.9,4.44 9.8,2.1 1.08,5 -3.92,6.56 -5.68,10 -1.5,2.9 -7.12,5.63 -2.7,9 3.89,2.94 6.38,-2.13 8.34,-4.87 5.2,-7.25 11.76,-10.48 20.86,-10.07 6.47,0.29 11.81,2.72 17.26,5.51 2.47,1.26 5.82,3.64 7.6,0.5 2.25,-4 -2.19,-5 -4.68,-7 -7,-5.45 -15.88,-5.51 -23.66,-8.66 23.63,-6.24 33.58,-2.87 42.08,14.24 L 687.6,4.94 C 676.72,-5.4 664.5,-9.17 650.47,-7.7"
       id="path28"
       inkscape:connector-curvature="0"
       style="fill:#ffffff" />
    <path
       class="cls-5"
       d="m 404.73,499.31 c 10.29,40.6 20.07,80.26 30.42,119.78 9.54,36.4 19.81,72.52 35.45,107 35.3,77.81 69.85,156 104.9,233.89 3.67,8.17 4.26,17.6 3.48,25 -2.21,21 0.19,42.06 -2.35,66.21 -9.36,-14.46 -17.45,-26.31 -24.89,-38.57 -30.82,-50.78 -64.53,-99.58 -98.92,-148 -23,-32.39 -43.72,-66.43 -65.64,-99.61 -16.33,-24.72 -32.76,-49.38 -49.52,-73.81 -8.59,-12.53 -12,-23.64 -4.23,-39.24 13.57,-27.25 23.14,-56.44 35.57,-84.32 10.27,-23.14 17.87,-47.86 35.73,-68.33 z"
       id="path30"
       inkscape:connector-curvature="0"
       style="fill:#2b3138" />
    <path
       class="cls-5"
       d="m 584.26,1082.21 c 4.28,-34.65 -1.42,-69.25 2.52,-103.68 4.92,-42.94 17.93,-84.09 25.72,-126.38 8.58,-46.6 20.13,-92.66 28.2,-139.34 4.26,-24.68 4.09,-50.16 5.52,-75.3 2.65,-46.26 5,-92.54 7.49,-138.81 0.15,-2.75 -0.6,-6.22 3.15,-7.06 3.75,-0.84 5.78,2.44 8.09,4.63 27.57,26.1 53.22,53.88 74.46,85.49 7.26,10.8 13.83,22.11 21.77,32.37 6.28,8.12 5.2,15.44 1.48,23.82 -25.12,56.52 -49.9,113.19 -75.14,169.66 -21.26,47.55 -40.65,95.8 -57.61,145 -13.77,40 -28.1,79.77 -42.18,119.64 -1.2,3.34 -2.33,6.65 -3.47,9.96 z"
       id="path32"
       inkscape:connector-curvature="0"
       style="fill:#2b3138" />
    <path
       class="cls-5"
       d="m 724.76,415 c 17,9.4 28,25.5 41.94,38.28 24.92,22.8 49,46.72 78,64.49 9.89,6.06 12.31,13.77 12.86,25 2.32,47.16 4.58,94.3 4.42,141.52 -0.07,20.37 -1.28,23.6 -20.64,24.3 -33.27,1.19 -66.71,2.59 -101.44,-1.64 10.63,-24.13 19.82,-47.14 30.89,-69.19 5.18,-10.31 4.13,-17.21 -2.39,-26.14 -14.12,-19.35 -26.83,-39.71 -40.54,-59.38 -4.07,-5.84 -3,-9.77 0.89,-15.18 10.19,-14.19 19.38,-29.09 29.41,-43.4 4.46,-6.35 3.62,-11.33 -0.11,-17.81 -11.53,-20 -22.27,-40.49 -33.32,-60.78 z"
       id="path34"
       inkscape:connector-curvature="0"
       style="fill:#2b3138" />
    <path
       class="cls-5"
       d="m 403.54,280.46 c -0.45,16 -5.32,29.33 -8.49,42.77 -4.76,20.18 -8.17,40.57 -10.91,61 -2.7,20.14 4.33,39.4 8,58.9 1.62,8.74 2.78,17.59 6,26 4.37,11.28 2.94,21.36 -4.19,32.12 -12.57,19 -22.49,39.56 -30.9,60.8 -1,2.44 -0.64,6.23 -4.26,6.83 -4.28,0.71 -5.42,-3.42 -6.85,-5.92 -10.3,-18 -20.71,-35.89 -34,-52 -8.79,-10.64 -17.26,-21.55 -26,-32.23 -5.79,-7.09 -10.48,-13.6 -6.19,-24 10.05,-24.45 19.56,-49.16 28.12,-74.17 7,-20.5 21.88,-35 35.77,-50.17 a 432.4,432.4 0 0 1 53.9,-49.93 z"
       id="path36"
       inkscape:connector-curvature="0"
       style="fill:#2b3138" />
    <path
       class="cls-5"
       d="m 605.58,765.21 c -4.21,2.15 -4,6.21 -3.28,9.64 10.35,46.36 2.34,91.22 -11.67,136.67 -9.77,-9.2 -15.88,-21 -22,-32.42 -10.48,-19.52 -14.91,-40.52 -16,-63 -2,-40.67 -3.09,-81.37 -5.17,-122 -1.51,-29.39 -0.52,-58.7 -1.83,-88 -0.47,-10.54 -1.68,-21 -2.27,-31.58 -0.59,-10.58 8.87,-7.53 14,-9.77 7.5,-3.24 4.15,4.15 5.83,6.81 6.92,11 7.76,23.8 11,35.88 1,3.61 0.08,8.79 6.26,8.77 l 1.11,4.23 c -1.68,0.76 -3.7,1.61 -2.82,3.82 0.4,1 2.26,1.43 3.45,2.11 9.65,33.37 14.95,67.58 19.68,101.91 -7,4.72 -7.44,8.43 1.65,10.66 a 7.6,7.6 0 0 1 1.06,7.13 c -8.08,5 -8.18,9.9 0.12,14.76 z"
       id="path38"
       inkscape:connector-curvature="0"
       style="fill:#2b3138" />
    <path
       class="cls-3"
       d="m 602,728.27 c -4.74,-34.32 -10,-68.53 -19.7,-101.9 -0.22,-2 -0.42,-4 -0.62,-5.93 l -1.11,-4.23 c -3.62,-19.45 -6,-39.21 -14,-57.58 -1,-2.39 -1.44,-5 -0.12,-6.93 11.48,-17.05 16.05,-37 23.72,-55.66 0.92,-2.23 1.37,-4.8 4.57,-4.8 q 8.36,26.75 16.73,53.49 c 0.94,3 0.94,7.27 4.8,7.71 4.94,0.56 5.2,-4.36 6.41,-7.54 6.66,-17.49 13,-35.09 19.8,-52.53 0.81,-2.08 -0.3,-8 5.56,-4.68 -3.31,73.3 -7.78,146.53 -14.13,219.62 -2.54,29.24 -10,57.77 -15.81,86.52 -0.64,3.17 -1.24,6.57 -5.15,7.35 -4.33,-11.6 0,-24.94 -7.36,-35.94 l -0.78,-4.39 c -0.25,-4.92 1.91,-9.85 -0.12,-14.76"
       id="path40"
       inkscape:connector-curvature="0"
       style="fill:#ffffff" />
    <path
       class="cls-5"
       d="m 619.19,281.95 c 17,26 36.82,47.41 52.42,72.12 8.34,13.22 20.36,24.25 28.66,37.84 17.7,29 35.65,57.79 51.49,87.87 2.54,4.83 0.78,7.94 -1.3,11.13 -9.34,14.3 -19,28.37 -28.51,42.58 -2.64,4 -5.32,4.6 -8.86,1.14 -19.23,-18.78 -37.87,-38.18 -56.92,-57.11 -6,-5.95 -6.07,-18.91 -6.86,-28.82 -2.33,-29.19 -7.25,-58 -13.18,-86.53 -4.58,-22 -7,-44.93 -17.93,-65.33 -1.79,-3.33 -1.58,-3.49 0.99,-14.89 z"
       id="path42"
       inkscape:connector-curvature="0"
       style="fill:#2b3138" />
    <path
       class="cls-5"
       d="m 483,488.86 23.59,47.45 c -19.91,25.42 -34.61,53.39 -42.33,84.93 -2.64,10.79 -3.7,22.22 -10.58,31.63 -6.52,-5.77 -6.54,-14.29 -8.47,-21.72 -11.66,-44.81 -23.09,-89.69 -34,-134.7 -7.8,-32.33 -15.45,-64.75 -21.51,-97.44 -3.21,-17.33 3.82,-34.45 6.59,-51.6 1.55,-9.59 4.75,-18.92 6.45,-28.49 1.42,-8 4.18,-7.71 9.12,-2.73 12.93,13 25.83,26.07 39,38.89 17.14,16.79 34.61,33.2 54.14,47.37 4.87,3.54 14.54,3 14.45,8.93 -0.08,5.39 -6.54,10.72 -10.27,16"
       id="path44"
       inkscape:connector-curvature="0"
       style="fill:#2b3138" />
    <path
       class="cls-5"
       d="m 494.68,318.86 c 3.38,-5.34 0.65,-10.35 -1.22,-15.14 -11.27,-28.86 -13.29,-60.13 -23.44,-89.28 -0.8,-2.29 -1.26,-5.22 1.09,-6.73 2.35,-1.51 4.65,0.53 6.83,1.47 26.48,11.44 53,22.63 80,33 14.23,5.49 28.46,6.44 43.06,5.67 9.38,-0.5 12.46,3 11.47,12 -1.66,14.9 1.42,30 -1.87,44.87 -4.79,1.9 -6.89,6.42 -10,10 -8.95,10.39 -15.18,23.33 -28,30.16 0.31,-2 0,-4.38 1,-5.8 11.24,-15.31 14.66,-33.12 17,-51.35 0.52,-4 2.9,-9.49 -2.09,-10.42 -5.39,-1 -3.38,5.31 -3.75,8.23 -2.7,21.72 -9.63,41.8 -22.26,59.76 -2.79,4 -3,8.18 -2.18,12.68 -8.61,2.19 -16.21,-0.22 -22.71,-5.76 -8.35,-7.11 -16.23,-14.78 -24.54,-21.94 -2.74,-2.36 -3.87,-7.71 -9.33,-5.82 q -0.06,-1.57 -0.11,-3.14 l -2.1,0.48 c -2.44,-0.54 -3.12,-5.27 -6.8,-2.87 z"
       id="path46"
       inkscape:connector-curvature="0"
       style="fill:#2b3138" />
    <path
       class="cls-3"
       d="m 572.64,344.92 c 12.78,-6.83 19,-19.77 28,-30.16 3.11,-3.61 5.2,-8.13 10,-10 -1.17,11.34 -2.83,22.66 -3.4,34 -0.71,14.36 -6.74,25.47 -17.13,35.23 -14.35,13.48 -31.52,23.29 -45.94,36.59 -2,1.84 -3.54,1.72 -6.34,0.64 C 484.64,390.55 452.18,344.9 412.49,308 c -5.57,-5.18 -3.52,-11.21 -2.9,-17.13 1.95,-18.66 4,-37.31 6.06,-56 6.66,2.79 10.16,9 15.1,13.72 17.41,16.53 32.78,35.33 53.52,48.16 l 10.41,22.08 0.16,0.11 a 19.16,19.16 0 0 0 4,10.45 c 1.63,9.65 6.32,18.22 9.63,27.27 1,2.65 2.31,6 5.9,4.31 3.59,-1.69 1.52,-4.73 0.58,-7.31 q -5.4,-14.71 -10.75,-29.43 l -0.32,0.23 c 5.46,-1.89 6.58,3.46 9.33,5.82 8.31,7.16 16.19,14.83 24.54,21.94 6.5,5.53 14.1,7.95 22.72,5.76 a 32.87,32.87 0 0 0 0.65,5.94 c 0.91,3.1 -0.78,8.77 4.23,8.33 5.01,-0.44 3.53,-5.94 2.53,-8.8 -2.65,-7.45 1.22,-12.86 4.76,-18.53 z"
       id="path48"
       inkscape:connector-curvature="0"
       style="fill:#ffffff" />
    <path
       class="cls-3"
       d="m 453.66,652.88 c 6.88,-9.41 7.94,-20.84 10.58,-31.63 7.72,-31.55 22.42,-59.51 42.33,-84.93 10.51,16 15.5,32.86 15.28,52.66 -0.81,72.56 3.57,145.13 -0.39,217.7 -0.21,3.93 -0.51,7.85 -2.6,12.26 -9.81,-22.16 -19.82,-44.23 -29.36,-66.5 q -14.45,-33.7 -28.12,-67.73 c -4.11,-10.19 -7.23,-20.71 -7.72,-31.83 z"
       id="path50"
       inkscape:connector-curvature="0"
       style="fill:#ffffff" />
    <path
       class="cls-3"
       d="m 483,488.86 c -7.94,17 -11.62,35.51 -18.15,53.12 -4.52,0.06 -5,-3.82 -6.56,-6.18 -7.32,-11.28 -13.49,-23.41 -21.63,-34 -30.06,-39.26 -29,-83.13 -19.77,-128.15 3.94,-19.22 8.65,-20.68 23.56,-7.23 17.85,16.1 34.8,33.2 52.13,49.88 4.68,4.5 9.31,9 14,13.56 -8.36,19.45 -17.88,38.47 -23.58,59 z"
       id="path52"
       inkscape:connector-curvature="0"
       style="fill:#ffffff" />
    <path
       class="cls-3"
       d="m 629.15,361 q 6.51,40.74 13,81.49 c 1.78,11.31 2.14,22.63 -0.46,33.9 L 617.44,540.2 599.09,488.32 579.88,429.71 C 599.06,408.81 618.42,388 629.15,361 Z"
       id="path54"
       inkscape:connector-curvature="0"
       style="fill:#ffffff" />
    <path
       class="cls-5"
       d="m 526.15,490.52 c 0,-9.82 -0.45,-17.61 0.11,-25.33 0.81,-11.2 5.69,-18.77 18,-21.16 a 135.09,135.09 0 0 1 24.23,-2 c 3.44,0 7.51,0.43 8.59,3.53 4.71,13.47 13.68,25.85 8.83,41.72 -6.53,21.38 -15.76,41.63 -24.07,62.27 -2.19,5.44 -6.1,8.86 -11.66,9.6 -5.37,0.71 -7.36,-3.93 -9.93,-7.66 -13.17,-19.15 -15.25,-40.71 -14.1,-60.97 z"
       id="path56"
       inkscape:connector-curvature="0"
       style="fill:#2b3138" />
    <path
       class="cls-5"
       d="m 783.85,755.48 c -15,2.39 -29.72,-3.14 -44.84,-2.17 -1.95,0.13 -4.75,0 -5.8,-1.19 -8.6,-9.76 -0.69,-20.19 -0.33,-30.24 0.24,-6.63 7,-8.28 13.25,-7.54 32.86,3.87 65.69,3.42 98.58,0.07 14.78,-1.51 15.13,-0.64 12.54,13.88 -3.68,20.6 -5.67,23.81 -24.57,24.64 -16.24,0.72 -32.29,4.8 -48.83,2.55 z"
       id="path58"
       inkscape:connector-curvature="0"
       style="fill:#2b3138" />
    <path
       class="cls-5"
       d="m 484.27,296.78 c -20.74,-12.83 -36.11,-31.63 -53.52,-48.16 -4.93,-4.68 -8.44,-10.93 -15.1,-13.72 q 0,-60.84 0,-121.66 l 1.92,-0.28 c 5.23,19.82 10.76,39.56 15.57,59.48 2.86,11.72 7.26,21.56 19.79,25.56 a 11.83,11.83 0 0 1 8.33,8.27 c 8.16,30.03 16.87,59.94 23.01,90.51 z"
       id="path60"
       inkscape:connector-curvature="0"
       style="fill:#2b3138" />
    <path
       class="cls-5"
       d="m 629.15,361 c -10.73,27 -30.09,47.79 -49.28,68.71 C 574.79,424 572,416.23 565.21,412 c -6.79,-4.23 -4.15,-7.52 0.54,-10.89 9.6,-6.9 18.29,-14.92 27.42,-22.38 15.7,-12.82 20.5,-29.63 21,-48.69 0.15,-5.47 -1,-11.26 3.41,-19 5.31,18.11 9.53,33.76 11.57,49.96 z"
       id="path62"
       inkscape:connector-curvature="0"
       style="fill:#2b3138" />
    <path
       class="cls-5"
       d="m 466.65,140.81 c 0.93,38.38 33.3,51.39 57.39,71.05 8.05,6.57 18.18,10.4 24.93,18.71 -16.14,-2.66 -30.24,-10.88 -45.13,-16.86 -17.65,-7.08 -34.83,-15.35 -52.14,-23.27 -3,-1.37 -8.85,-3.74 -3.76,-7.37 14.89,-10.62 16.94,-26.22 18.71,-42.26 z"
       id="path64"
       inkscape:connector-curvature="0"
       style="fill:#2b3138" />
    <path
       class="cls-5"
       d="m 599.08,488.34 18.35,51.88 24.25,-63.81 c 9.24,-0.27 7.23,5.81 6.34,11.25 -5.86,-3.32 -4.75,2.6 -5.56,4.68 -6.77,17.45 -13.14,35 -19.8,52.53 -1.21,3.18 -1.47,8.1 -6.41,7.54 -3.86,-0.44 -3.86,-4.72 -4.8,-7.71 Q 603,518 594.73,491.22 Z"
       id="path66"
       inkscape:connector-curvature="0"
       style="fill:#2b3138" />
    <path
       class="cls-3"
       d="m 382.79,-7.44 c -3.38,-9.38 -9.85,-11.31 -18.62,-7.74 6.64,-17.94 9.53,-18.52 24.63,-8.1 10.59,7.3 14.79,18 19.14,29.07 1.93,4.9 4.19,9.67 6.3,14.5 l -5.87,6.21 C 399.82,15.22 394.55,1.44 382.79,-7.44 Z"
       id="path68"
       inkscape:connector-curvature="0"
       style="fill:#ffffff" />
    <path
       class="cls-5"
       d="m 724.72,415.07 -1.81,-2.63 0.94,-0.61 0.92,3.2 z"
       id="path70"
       inkscape:connector-curvature="0"
       style="fill:#2b3138" />
    <path
       class="cls-4"
       d="m 382.79,-7.44 c 11.76,8.88 17,22.65 25.58,34 -0.59,6.86 0.44,13.83 -2.17,20.55 -3.82,9.81 4.46,15.46 9.26,22.64 -10.29,-0.2 -16.67,-7.42 -16.43,-17.8 a 41.21,41.21 0 0 1 1.22,-7.18 c 1.22,-6 2.89,-12.07 -1.1,-17.64 -1.34,-1.87 -4,-2.17 -5.3,-0.35 -4.36,6.09 -11,11.15 -9.2,20.19 3,14.44 5.14,29.29 22.95,33.6 0.89,0.22 1.46,1.77 2.21,2.75 -8.42,3.18 -18,-0.11 -22.82,-8.91 -9,-16.6 -13.13,-33.54 0.35,-50.13 3.52,-4.33 6.75,-9.07 2.21,-14.12 C 386,6.13 384.2,-1.57 377.33,-0.23 c -5.54,1.08 -7.07,7.35 -8.64,12.46 -4.16,13.49 -1.82,27.22 -1.14,40.93 -1.13,0 -2.48,0.18 -2.55,0 -5.19,-17.09 -5.72,-34.22 1.91,-50.62 2.77,-5.98 8.74,-9.54 15.88,-9.98 z"
       id="path72"
       inkscape:connector-curvature="0"
       style="fill:#171b1d" />
    <path
       class="cls-3"
       d="m 645.5,0.13 c 0.95,5 -0.29,9 2.73,13.2 C 636.41,9.44 636.41,9.44 645.5,0.13 Z"
       id="path74"
       inkscape:connector-curvature="0"
       style="fill:#ffffff" />
    <path
       class="cls-5"
       d="m 607.06,119 c -8.11,5.06 -13.72,0.52 -19.25,-4.88 -5.08,-4.95 -9,-11.73 -18.38,-9 -3.37,1 -7.24,-1.67 -3,-5.62 19,-17.73 22.53,-40.34 21.29,-64.64 a 50.3,50.3 0 0 1 0.25,-7.33 c 0.2,-2.1 1.1,-4.41 3.34,-4.48 2.24,-0.07 3.53,2.16 3.37,4.31 -1.15,15.21 4.14,31 -4.3,45.58 -2.45,4.24 -5.09,9.74 -0.32,13.33 5.3,4 11.17,8.76 18.8,6.64 13.9,-3.87 16.15,-8.28 10.5,-21.25"
       id="path76"
       inkscape:connector-curvature="0"
       style="fill:#2b3138" />
    <path
       class="cls-5"
       d="m 536,-9.18 c 4,-1.94 6.88,0.43 9.76,2.68 l -0.19,-0.27 c 0.39,1.44 0.8,2.85 2.75,2.7 l -0.31,-0.3 c 12.6,21.18 7.08,40.26 -6.69,58.43 -1.7,2.24 -3.25,6 -6.24,4.51 -4.06,-2.08 -1.2,-5.44 0.23,-8.27 5.36,-10.58 14.21,-19.91 12.73,-34.06 -3.11,1 -5.46,1.45 -7.53,2.46 -19.57,9.58 -37.08,5.37 -53.27,-7.84 -3.35,-2.73 -5.9,-7 -11.44,-4.61 -1.86,0.8 -4.12,0.6 -4.46,-2.3 -0.28,-2.42 1.2,-3.84 3.19,-4.56 14.36,-5.17 28.17,-13.15 44.47,-9.05 -1,6.62 -0.12,13.27 7.29,14.58 8.3,1.48 7.05,-7.1 9.43,-11.7 A 7.36,7.36 0 0 0 536,-9.18 Z M 487.82,2.19 c 8.52,8.09 17.1,13.4 28.21,15.24 -3,-3.55 -7.25,-6.21 -7.85,-9.53 -2.69,-14.8 -10.56,-11.29 -20.36,-5.71 z"
       id="path78"
       inkscape:connector-curvature="0"
       style="fill:#2b3138" />
    <path
       class="cls-5"
       d="m 603,161.29 a 72.43,72.43 0 0 1 8.5,0.5 c 5.35,0.92 6.92,3.13 3.17,8.19 -8.93,12 -33.13,16.53 -45.35,7.88 -4.37,-3.09 -1.46,-5.42 1.46,-7.23 9.9,-6.1 20.44,-9.93 32.22,-9.34 z"
       id="path80"
       inkscape:connector-curvature="0"
       style="fill:#2b3138" />
    <path
       class="cls-5"
       d="m 511.18,136.77 c 0,7.33 0,14.65 0,22 0,4.31 1.21,9.36 5.35,10.11 14.82,2.69 12.16,17.75 19.22,25.79"
       id="path82"
       inkscape:connector-curvature="0"
       style="fill:#2b3138" />
    <path
       class="cls-4"
       d="m 548.37,152.78 c -4.26,-6 -7.65,2.27 -11.64,0.71 q -0.69,-0.72 -1.34,-1.48 c 15.09,-12.27 26.81,-29.55 49.35,-34.13 -3,15.13 -15.49,18.06 -24,24.86 -5.41,4.52 2.09,5.08 2.41,7.84 l -0.47,0.57 -0.73,-0.14 -6.23,-0.91 -1.2,-5.19 c -0.3,0.22 -0.79,0.39 -0.88,0.68 -0.59,2 -0.12,3.67 1.85,4.71 l 0.65,3.44"
       id="path84"
       inkscape:connector-curvature="0"
       style="fill:#171b1d" />
    <path
       class="cls-5"
       d="m 563.11,150.6 c -0.31,-2.76 -7.81,-3.32 -2.41,-7.84 5.47,1.12 10.26,-1.65 15.13,-3.13 16.33,-5 32.36,-3.23 48.41,1 l -0.16,-0.36 c 0.51,3.34 1.83,5.06 5.23,2.61 l -0.33,-0.11 c -1.82,2.47 2.68,11.3 -4.34,7.54 -21.01,-11.31 -41.08,-4.96 -61.53,0.29 z"
       id="path86"
       inkscape:connector-curvature="0"
       style="fill:#2b3138" />
    <path
       class="cls-4"
       d="m 607.06,119 c 0,0 -0.19,0.39 -0.19,0.39 18.42,-1.65 21.25,14.86 30.85,24.88 -4.55,2.16 -6.13,-1.67 -8.74,-1.55 l 0.33,0.11 c -1.29,-1.78 -2.92,-2.88 -5.23,-2.61 l 0.16,0.36 c -4.52,-8.13 -18.16,-9.01 -17.18,-21.58 z"
       id="path88"
       inkscape:connector-curvature="0"
       style="fill:#171b1d" />
    <path
       class="cls-4"
       d="M 536,-9.18"
       id="path90"
       inkscape:connector-curvature="0"
       style="fill:#171b1d" />
    <path
       class="cls-4"
       d="m 536.72,153.5 c -1.2,1.85 -3,3.39 -4.49,1 -0.75,-1.17 1.49,-2.33 3.15,-2.52 q 0.62,0.8 1.34,1.52 z"
       id="path92"
       inkscape:connector-curvature="0"
       style="fill:#171b1d" />
    <path
       class="cls-5"
       d="m 555.69,150.12 6.23,0.92"
       id="path94"
       inkscape:connector-curvature="0"
       style="fill:#2b3138" />
    <path
       class="cls-5"
       d="m 548.37,152.78 2.2,2.27 c -1.88,0.36 -2.64,-0.38 -2.2,-2.27 z"
       id="path96"
       inkscape:connector-curvature="0"
       style="fill:#2b3138" />
    <path
       class="cls-4"
       d="m 604.68,746.06 c 2,4.9 -0.14,9.84 0.12,14.76 -8.3,-4.82 -8.19,-9.82 -0.12,-14.76 z"
       id="path98"
       inkscape:connector-curvature="0"
       style="fill:#171b1d" />
    <path
       class="cls-4"
       d="m 602,728.27 1.65,10.66 C 594.53,736.7 595,733 602,728.27 Z"
       id="path100"
       inkscape:connector-curvature="0"
       style="fill:#171b1d" />
    <path
       class="cls-4"
       d="m 581.65,620.43 c 0.2,2 0.4,4 0.62,5.93 -1.18,-0.69 -3,-1.11 -3.44,-2.12 -0.89,-2.24 1.17,-3.04 2.82,-3.81 z"
       id="path102"
       inkscape:connector-curvature="0"
       style="fill:#171b1d" />
    <path
       class="cls-4"
       d="m 572.64,344.92 c -3.54,5.67 -7.41,11 -4.79,18.57 1,2.87 2.38,8.37 -2.53,8.8 -4.91,0.43 -3.32,-5.24 -4.23,-8.33"
       id="path104"
       inkscape:connector-curvature="0"
       style="fill:#171b1d" />
    <path
       class="cls-4"
       d="M 498.82,329.42"
       id="path106"
       inkscape:connector-curvature="0"
       style="fill:#171b1d" />
    <path
       class="cls-3"
       d="M 502.05,323.57"
       id="path108"
       inkscape:connector-curvature="0"
       style="fill:#ffffff" />
    <path
       class="cls-5"
       d="m 502.05,323.57 a 3.14,3.14 0 0 1 2.11,0.69 q 5.37,14.71 10.75,29.43 c 0.94,2.57 3.1,5.63 -0.58,7.31 -3.68,1.68 -4.93,-1.66 -5.9,-4.31 -3.31,-9.05 -8,-17.62 -9.63,-27.27 2.55,-1.15 2.62,-3.65 3.25,-5.85 z"
       id="path110"
       inkscape:connector-curvature="0"
       style="fill:#2b3138" />
    <path
       class="cls-5"
       d="m 555.45,150.31 c -2,-1 -2.44,-2.69 -1.85,-4.71 0.08,-0.29 0.58,-0.46 0.88,-0.68 l 1.2,5.19 z"
       id="path112"
       inkscape:connector-curvature="0"
       style="fill:#2b3138" />
    <path
       class="cls-3"
       d="m 624.09,140.25 c 2.31,-0.27 3.94,0.83 5.23,2.61 -3.4,2.45 -4.73,0.73 -5.23,-2.61 z"
       id="path114"
       inkscape:connector-curvature="0"
       style="fill:#ffffff" />
  </g>
</svg>
